<mxfile host="app.diagrams.net" modified="2023-12-06T04:53:58.917Z" agent="Mozilla/5.0 (Windows NT 10.0; Win64; x64) AppleWebKit/537.36 (KHTML, like Gecko) Chrome/109.0.0.0 Safari/537.36" etag="JninIs6NceyuHFqVoG02" version="22.1.5" type="github">
  <diagram name="Page-1" id="It6u3-XIVj_zns_wtU7Q">
    <mxGraphModel dx="990" dy="772" grid="0" gridSize="10" guides="1" tooltips="1" connect="1" arrows="1" fold="1" page="0" pageScale="1" pageWidth="850" pageHeight="1100" math="0" shadow="0">
      <root>
        <mxCell id="0" />
        <mxCell id="1" parent="0" />
        <mxCell id="dmzS7PUN9_p-txz57ALC-1" value="" style="swimlane;childLayout=stackLayout;resizeParent=1;resizeParentMax=0;horizontal=0;startSize=20;horizontalStack=0;html=1;fontSize=16;labelBackgroundColor=none;" parent="1" vertex="1">
          <mxGeometry x="84" y="2" width="5973" height="3211" as="geometry" />
        </mxCell>
        <mxCell id="dmzS7PUN9_p-txz57ALC-2" value="" style="swimlane;startSize=20;horizontal=0;html=1;fontSize=16;labelBackgroundColor=none;swimlaneLine=0;" parent="dmzS7PUN9_p-txz57ALC-1" vertex="1">
          <mxGeometry x="20" width="5953" height="1011" as="geometry" />
        </mxCell>
        <mxCell id="dmzS7PUN9_p-txz57ALC-6" style="edgeStyle=none;curved=1;rounded=0;orthogonalLoop=1;jettySize=auto;html=1;exitX=1;exitY=0.5;exitDx=0;exitDy=0;exitPerimeter=0;fontSize=12;startSize=8;endSize=8;labelBackgroundColor=none;fontColor=default;" parent="dmzS7PUN9_p-txz57ALC-2" source="dmzS7PUN9_p-txz57ALC-5" edge="1">
          <mxGeometry relative="1" as="geometry">
            <mxPoint x="95" y="291" as="targetPoint" />
          </mxGeometry>
        </mxCell>
        <mxCell id="dmzS7PUN9_p-txz57ALC-5" value="" style="strokeWidth=2;html=1;shape=mxgraph.flowchart.start_1;whiteSpace=wrap;fontSize=16;labelBackgroundColor=none;" parent="dmzS7PUN9_p-txz57ALC-2" vertex="1">
          <mxGeometry x="37" y="276.5" width="27" height="29" as="geometry" />
        </mxCell>
        <mxCell id="dmzS7PUN9_p-txz57ALC-11" style="edgeStyle=none;curved=1;rounded=0;orthogonalLoop=1;jettySize=auto;html=1;exitX=1;exitY=0.5;exitDx=0;exitDy=0;exitPerimeter=0;fontSize=12;startSize=8;endSize=8;labelBackgroundColor=none;fontColor=default;" parent="dmzS7PUN9_p-txz57ALC-2" source="dmzS7PUN9_p-txz57ALC-7" edge="1">
          <mxGeometry relative="1" as="geometry">
            <mxPoint x="211" y="291" as="targetPoint" />
          </mxGeometry>
        </mxCell>
        <mxCell id="dmzS7PUN9_p-txz57ALC-7" value="Browse" style="points=[[0.25,0,0],[0.5,0,0],[0.75,0,0],[1,0.25,0],[1,0.5,0],[1,0.75,0],[0.75,1,0],[0.5,1,0],[0.25,1,0],[0,0.75,0],[0,0.5,0],[0,0.25,0]];shape=mxgraph.bpmn.task;whiteSpace=wrap;rectStyle=rounded;size=10;html=1;container=1;expand=0;collapsible=0;taskMarker=abstract;fontSize=16;labelBackgroundColor=none;" parent="dmzS7PUN9_p-txz57ALC-2" vertex="1">
          <mxGeometry x="97" y="270.75" width="75" height="40.5" as="geometry" />
        </mxCell>
        <mxCell id="dmzS7PUN9_p-txz57ALC-19" style="edgeStyle=none;curved=1;rounded=0;orthogonalLoop=1;jettySize=auto;html=1;exitX=1;exitY=0.5;exitDx=0;exitDy=0;exitPerimeter=0;fontSize=12;startSize=8;endSize=8;labelBackgroundColor=none;fontColor=default;" parent="dmzS7PUN9_p-txz57ALC-2" source="dmzS7PUN9_p-txz57ALC-12" edge="1">
          <mxGeometry relative="1" as="geometry">
            <mxPoint x="330" y="291" as="targetPoint" />
          </mxGeometry>
        </mxCell>
        <mxCell id="dmzS7PUN9_p-txz57ALC-12" value="Search Location" style="points=[[0.25,0,0],[0.5,0,0],[0.75,0,0],[1,0.25,0],[1,0.5,0],[1,0.75,0],[0.75,1,0],[0.5,1,0],[0.25,1,0],[0,0.75,0],[0,0.5,0],[0,0.25,0]];shape=mxgraph.bpmn.task;whiteSpace=wrap;rectStyle=rounded;size=10;html=1;container=1;expand=0;collapsible=0;taskMarker=abstract;fontSize=16;labelBackgroundColor=none;" parent="dmzS7PUN9_p-txz57ALC-2" vertex="1">
          <mxGeometry x="211" y="270.75" width="75" height="40.5" as="geometry" />
        </mxCell>
        <mxCell id="dmzS7PUN9_p-txz57ALC-17" value="Search Lab Technician" style="points=[[0.25,0,0],[0.5,0,0],[0.75,0,0],[1,0.25,0],[1,0.5,0],[1,0.75,0],[0.75,1,0],[0.5,1,0],[0.25,1,0],[0,0.75,0],[0,0.5,0],[0,0.25,0]];shape=mxgraph.bpmn.task;whiteSpace=wrap;rectStyle=rounded;size=10;html=1;container=1;expand=0;collapsible=0;taskMarker=abstract;fontSize=16;labelBackgroundColor=none;" parent="dmzS7PUN9_p-txz57ALC-2" vertex="1">
          <mxGeometry x="789" y="657" width="100" height="65" as="geometry" />
        </mxCell>
        <mxCell id="zH8U9PDyr3ZS0vaO9rJW-21" style="edgeStyle=none;curved=1;rounded=0;orthogonalLoop=1;jettySize=auto;html=1;exitX=1;exitY=0.5;exitDx=0;exitDy=0;exitPerimeter=0;fontSize=12;startSize=8;endSize=8;" parent="dmzS7PUN9_p-txz57ALC-2" source="dmzS7PUN9_p-txz57ALC-20" edge="1">
          <mxGeometry relative="1" as="geometry">
            <mxPoint x="450" y="292" as="targetPoint" />
          </mxGeometry>
        </mxCell>
        <mxCell id="dmzS7PUN9_p-txz57ALC-20" value="Select Location" style="points=[[0.25,0,0],[0.5,0,0],[0.75,0,0],[1,0.25,0],[1,0.5,0],[1,0.75,0],[0.75,1,0],[0.5,1,0],[0.25,1,0],[0,0.75,0],[0,0.5,0],[0,0.25,0]];shape=mxgraph.bpmn.task;whiteSpace=wrap;rectStyle=rounded;size=10;html=1;container=1;expand=0;collapsible=0;taskMarker=abstract;fontSize=16;labelBackgroundColor=none;" parent="dmzS7PUN9_p-txz57ALC-2" vertex="1">
          <mxGeometry x="332" y="270.75" width="75" height="40.5" as="geometry" />
        </mxCell>
        <mxCell id="zH8U9PDyr3ZS0vaO9rJW-39" style="edgeStyle=none;curved=1;rounded=0;orthogonalLoop=1;jettySize=auto;html=1;exitX=1;exitY=0.5;exitDx=0;exitDy=0;exitPerimeter=0;fontSize=12;startSize=8;endSize=8;" parent="dmzS7PUN9_p-txz57ALC-2" source="zH8U9PDyr3ZS0vaO9rJW-16" edge="1">
          <mxGeometry relative="1" as="geometry">
            <mxPoint x="1194" y="690" as="targetPoint" />
          </mxGeometry>
        </mxCell>
        <mxCell id="zH8U9PDyr3ZS0vaO9rJW-16" value="Select Lab Technician" style="points=[[0.25,0,0],[0.5,0,0],[0.75,0,0],[1,0.25,0],[1,0.5,0],[1,0.75,0],[0.75,1,0],[0.5,1,0],[0.25,1,0],[0,0.75,0],[0,0.5,0],[0,0.25,0]];shape=mxgraph.bpmn.task;whiteSpace=wrap;rectStyle=rounded;size=10;html=1;container=1;expand=0;collapsible=0;taskMarker=abstract;fontSize=16;labelBackgroundColor=none;" parent="dmzS7PUN9_p-txz57ALC-2" vertex="1">
          <mxGeometry x="979" y="659" width="100" height="63" as="geometry" />
        </mxCell>
        <mxCell id="zH8U9PDyr3ZS0vaO9rJW-29" style="edgeStyle=none;curved=1;rounded=0;orthogonalLoop=1;jettySize=auto;html=1;exitX=1;exitY=0.5;exitDx=0;exitDy=0;exitPerimeter=0;fontSize=12;startSize=8;endSize=8;" parent="dmzS7PUN9_p-txz57ALC-2" source="zH8U9PDyr3ZS0vaO9rJW-22" edge="1">
          <mxGeometry relative="1" as="geometry">
            <mxPoint x="776" y="150" as="targetPoint" />
          </mxGeometry>
        </mxCell>
        <mxCell id="zH8U9PDyr3ZS0vaO9rJW-22" value="Consltation" style="points=[[0.25,0,0],[0.5,0,0],[0.75,0,0],[1,0.25,0],[1,0.5,0],[1,0.75,0],[0.75,1,0],[0.5,1,0],[0.25,1,0],[0,0.75,0],[0,0.5,0],[0,0.25,0]];shape=mxgraph.bpmn.task;whiteSpace=wrap;rectStyle=rounded;size=10;html=1;container=1;expand=0;collapsible=0;taskMarker=abstract;fontSize=16;labelBackgroundColor=none;" parent="dmzS7PUN9_p-txz57ALC-2" vertex="1">
          <mxGeometry x="590" y="129.5" width="100" height="40.5" as="geometry" />
        </mxCell>
        <mxCell id="zH8U9PDyr3ZS0vaO9rJW-23" value="" style="points=[[0.25,0.25,0],[0.5,0,0],[0.75,0.25,0],[1,0.5,0],[0.75,0.75,0],[0.5,1,0],[0.25,0.75,0],[0,0.5,0]];shape=mxgraph.bpmn.gateway2;html=1;verticalLabelPosition=bottom;labelBackgroundColor=#ffffff;verticalAlign=top;align=center;perimeter=rhombusPerimeter;outlineConnect=0;outline=catching;symbol=parallelMultiple;fontSize=16;" parent="dmzS7PUN9_p-txz57ALC-2" vertex="1">
          <mxGeometry x="447" y="266" width="50" height="50" as="geometry" />
        </mxCell>
        <mxCell id="zH8U9PDyr3ZS0vaO9rJW-35" style="edgeStyle=none;curved=1;rounded=0;orthogonalLoop=1;jettySize=auto;html=1;exitX=1;exitY=0.5;exitDx=0;exitDy=0;exitPerimeter=0;fontSize=12;startSize=8;endSize=8;" parent="dmzS7PUN9_p-txz57ALC-2" source="zH8U9PDyr3ZS0vaO9rJW-25" target="dmzS7PUN9_p-txz57ALC-17" edge="1">
          <mxGeometry relative="1" as="geometry" />
        </mxCell>
        <mxCell id="zH8U9PDyr3ZS0vaO9rJW-25" value="Home Medical Service" style="points=[[0.25,0,0],[0.5,0,0],[0.75,0,0],[1,0.25,0],[1,0.5,0],[1,0.75,0],[0.75,1,0],[0.5,1,0],[0.25,1,0],[0,0.75,0],[0,0.5,0],[0,0.25,0]];shape=mxgraph.bpmn.task;whiteSpace=wrap;rectStyle=rounded;size=10;html=1;container=1;expand=0;collapsible=0;taskMarker=abstract;fontSize=16;labelBackgroundColor=none;" parent="dmzS7PUN9_p-txz57ALC-2" vertex="1">
          <mxGeometry x="596" y="657" width="112" height="65" as="geometry" />
        </mxCell>
        <mxCell id="zH8U9PDyr3ZS0vaO9rJW-31" style="edgeStyle=none;curved=1;rounded=0;orthogonalLoop=1;jettySize=auto;html=1;exitX=1;exitY=0.5;exitDx=0;exitDy=0;exitPerimeter=0;fontSize=12;startSize=8;endSize=8;" parent="dmzS7PUN9_p-txz57ALC-2" source="zH8U9PDyr3ZS0vaO9rJW-30" edge="1">
          <mxGeometry relative="1" as="geometry">
            <mxPoint x="964" y="150" as="targetPoint" />
          </mxGeometry>
        </mxCell>
        <mxCell id="zH8U9PDyr3ZS0vaO9rJW-30" value="Search Doctor Specialist" style="points=[[0.25,0,0],[0.5,0,0],[0.75,0,0],[1,0.25,0],[1,0.5,0],[1,0.75,0],[0.75,1,0],[0.5,1,0],[0.25,1,0],[0,0.75,0],[0,0.5,0],[0,0.25,0]];shape=mxgraph.bpmn.task;whiteSpace=wrap;rectStyle=rounded;size=10;html=1;container=1;expand=0;collapsible=0;taskMarker=abstract;fontSize=16;labelBackgroundColor=none;" parent="dmzS7PUN9_p-txz57ALC-2" vertex="1">
          <mxGeometry x="774" y="127" width="106" height="45" as="geometry" />
        </mxCell>
        <mxCell id="zH8U9PDyr3ZS0vaO9rJW-32" value="Select Doctor Specialist" style="points=[[0.25,0,0],[0.5,0,0],[0.75,0,0],[1,0.25,0],[1,0.5,0],[1,0.75,0],[0.75,1,0],[0.5,1,0],[0.25,1,0],[0,0.75,0],[0,0.5,0],[0,0.25,0]];shape=mxgraph.bpmn.task;whiteSpace=wrap;rectStyle=rounded;size=10;html=1;container=1;expand=0;collapsible=0;taskMarker=abstract;fontSize=16;labelBackgroundColor=none;" parent="dmzS7PUN9_p-txz57ALC-2" vertex="1">
          <mxGeometry x="964" y="129.25" width="106" height="40.5" as="geometry" />
        </mxCell>
        <mxCell id="zH8U9PDyr3ZS0vaO9rJW-33" style="edgeStyle=orthogonalEdgeStyle;rounded=0;orthogonalLoop=1;jettySize=auto;html=1;exitX=0.5;exitY=0;exitDx=0;exitDy=0;exitPerimeter=0;entryX=0.5;entryY=0;entryDx=0;entryDy=0;entryPerimeter=0;fontSize=12;startSize=8;endSize=8;" parent="dmzS7PUN9_p-txz57ALC-2" source="zH8U9PDyr3ZS0vaO9rJW-23" target="zH8U9PDyr3ZS0vaO9rJW-22" edge="1">
          <mxGeometry relative="1" as="geometry" />
        </mxCell>
        <mxCell id="zH8U9PDyr3ZS0vaO9rJW-36" style="edgeStyle=none;curved=1;rounded=0;orthogonalLoop=1;jettySize=auto;html=1;exitX=1;exitY=0.5;exitDx=0;exitDy=0;exitPerimeter=0;entryX=0;entryY=0.5;entryDx=0;entryDy=0;entryPerimeter=0;fontSize=12;startSize=8;endSize=8;" parent="dmzS7PUN9_p-txz57ALC-2" source="dmzS7PUN9_p-txz57ALC-17" target="zH8U9PDyr3ZS0vaO9rJW-16" edge="1">
          <mxGeometry relative="1" as="geometry" />
        </mxCell>
        <mxCell id="_HntZ_YFahZdOvb8UVIG-4" style="edgeStyle=none;curved=1;rounded=0;orthogonalLoop=1;jettySize=auto;html=1;exitX=1;exitY=0.5;exitDx=0;exitDy=0;exitPerimeter=0;fontSize=12;startSize=8;endSize=8;" parent="dmzS7PUN9_p-txz57ALC-2" source="zH8U9PDyr3ZS0vaO9rJW-40" edge="1">
          <mxGeometry relative="1" as="geometry">
            <mxPoint x="1370" y="693" as="targetPoint" />
          </mxGeometry>
        </mxCell>
        <mxCell id="zH8U9PDyr3ZS0vaO9rJW-40" value="Check Availability" style="points=[[0.25,0,0],[0.5,0,0],[0.75,0,0],[1,0.25,0],[1,0.5,0],[1,0.75,0],[0.75,1,0],[0.5,1,0],[0.25,1,0],[0,0.75,0],[0,0.5,0],[0,0.25,0]];shape=mxgraph.bpmn.task;whiteSpace=wrap;rectStyle=rounded;size=10;html=1;container=1;expand=0;collapsible=0;taskMarker=abstract;fontSize=16;labelBackgroundColor=none;" parent="dmzS7PUN9_p-txz57ALC-2" vertex="1">
          <mxGeometry x="1195" y="661" width="100" height="63" as="geometry" />
        </mxCell>
        <mxCell id="_HntZ_YFahZdOvb8UVIG-3" style="edgeStyle=none;curved=1;rounded=0;orthogonalLoop=1;jettySize=auto;html=1;exitX=1;exitY=0.5;exitDx=0;exitDy=0;exitPerimeter=0;fontSize=12;startSize=8;endSize=8;" parent="dmzS7PUN9_p-txz57ALC-2" source="_HntZ_YFahZdOvb8UVIG-1" edge="1">
          <mxGeometry relative="1" as="geometry">
            <mxPoint x="1357" y="150" as="targetPoint" />
          </mxGeometry>
        </mxCell>
        <mxCell id="_HntZ_YFahZdOvb8UVIG-1" value="Check Availability" style="points=[[0.25,0,0],[0.5,0,0],[0.75,0,0],[1,0.25,0],[1,0.5,0],[1,0.75,0],[0.75,1,0],[0.5,1,0],[0.25,1,0],[0,0.75,0],[0,0.5,0],[0,0.25,0]];shape=mxgraph.bpmn.task;whiteSpace=wrap;rectStyle=rounded;size=10;html=1;container=1;expand=0;collapsible=0;taskMarker=abstract;fontSize=16;labelBackgroundColor=none;" parent="dmzS7PUN9_p-txz57ALC-2" vertex="1">
          <mxGeometry x="1183" y="127.25" width="100" height="45" as="geometry" />
        </mxCell>
        <mxCell id="_HntZ_YFahZdOvb8UVIG-2" style="edgeStyle=none;curved=1;rounded=0;orthogonalLoop=1;jettySize=auto;html=1;exitX=1;exitY=0.5;exitDx=0;exitDy=0;exitPerimeter=0;entryX=0;entryY=0.5;entryDx=0;entryDy=0;entryPerimeter=0;fontSize=12;startSize=8;endSize=8;" parent="dmzS7PUN9_p-txz57ALC-2" source="zH8U9PDyr3ZS0vaO9rJW-32" target="_HntZ_YFahZdOvb8UVIG-1" edge="1">
          <mxGeometry relative="1" as="geometry" />
        </mxCell>
        <mxCell id="_HntZ_YFahZdOvb8UVIG-13" style="edgeStyle=orthogonalEdgeStyle;rounded=0;orthogonalLoop=1;jettySize=auto;html=1;exitX=0.5;exitY=1;exitDx=0;exitDy=0;exitPerimeter=0;fontSize=12;startSize=8;endSize=8;entryX=0;entryY=0.5;entryDx=0;entryDy=0;entryPerimeter=0;" parent="dmzS7PUN9_p-txz57ALC-2" source="_HntZ_YFahZdOvb8UVIG-5" target="_HntZ_YFahZdOvb8UVIG-14" edge="1">
          <mxGeometry relative="1" as="geometry">
            <mxPoint x="1382" y="244" as="targetPoint" />
          </mxGeometry>
        </mxCell>
        <mxCell id="_HntZ_YFahZdOvb8UVIG-42" value="Yes" style="edgeLabel;html=1;align=center;verticalAlign=middle;resizable=0;points=[];fontSize=16;" parent="_HntZ_YFahZdOvb8UVIG-13" vertex="1" connectable="0">
          <mxGeometry x="-0.2693" y="-2" relative="1" as="geometry">
            <mxPoint y="-1" as="offset" />
          </mxGeometry>
        </mxCell>
        <mxCell id="_HntZ_YFahZdOvb8UVIG-5" value="" style="points=[[0.25,0.25,0],[0.5,0,0],[0.75,0.25,0],[1,0.5,0],[0.75,0.75,0],[0.5,1,0],[0.25,0.75,0],[0,0.5,0]];shape=mxgraph.bpmn.gateway2;html=1;verticalLabelPosition=bottom;labelBackgroundColor=#ffffff;verticalAlign=top;align=center;perimeter=rhombusPerimeter;outlineConnect=0;outline=none;symbol=none;gwType=exclusive;fontSize=16;" parent="dmzS7PUN9_p-txz57ALC-2" vertex="1">
          <mxGeometry x="1357" y="124.75" width="50" height="50" as="geometry" />
        </mxCell>
        <mxCell id="_HntZ_YFahZdOvb8UVIG-15" style="edgeStyle=orthogonalEdgeStyle;rounded=0;orthogonalLoop=1;jettySize=auto;html=1;exitX=0.5;exitY=1;exitDx=0;exitDy=0;exitPerimeter=0;fontSize=12;startSize=8;endSize=8;entryX=0;entryY=0.5;entryDx=0;entryDy=0;entryPerimeter=0;" parent="dmzS7PUN9_p-txz57ALC-2" source="_HntZ_YFahZdOvb8UVIG-6" target="_HntZ_YFahZdOvb8UVIG-16" edge="1">
          <mxGeometry relative="1" as="geometry">
            <mxPoint x="1394" y="786" as="targetPoint" />
          </mxGeometry>
        </mxCell>
        <mxCell id="_HntZ_YFahZdOvb8UVIG-43" value="Yes" style="edgeLabel;html=1;align=center;verticalAlign=middle;resizable=0;points=[];fontSize=16;" parent="_HntZ_YFahZdOvb8UVIG-15" vertex="1" connectable="0">
          <mxGeometry x="-0.0439" relative="1" as="geometry">
            <mxPoint y="1" as="offset" />
          </mxGeometry>
        </mxCell>
        <mxCell id="_HntZ_YFahZdOvb8UVIG-6" value="" style="points=[[0.25,0.25,0],[0.5,0,0],[0.75,0.25,0],[1,0.5,0],[0.75,0.75,0],[0.5,1,0],[0.25,0.75,0],[0,0.5,0]];shape=mxgraph.bpmn.gateway2;html=1;verticalLabelPosition=bottom;labelBackgroundColor=#ffffff;verticalAlign=top;align=center;perimeter=rhombusPerimeter;outlineConnect=0;outline=none;symbol=none;gwType=exclusive;fontSize=16;" parent="dmzS7PUN9_p-txz57ALC-2" vertex="1">
          <mxGeometry x="1369" y="667.5" width="50" height="50" as="geometry" />
        </mxCell>
        <mxCell id="_HntZ_YFahZdOvb8UVIG-17" style="edgeStyle=none;curved=1;rounded=0;orthogonalLoop=1;jettySize=auto;html=1;exitX=1;exitY=0.5;exitDx=0;exitDy=0;exitPerimeter=0;fontSize=12;startSize=8;endSize=8;entryX=0;entryY=0.5;entryDx=0;entryDy=0;entryPerimeter=0;" parent="dmzS7PUN9_p-txz57ALC-2" source="_HntZ_YFahZdOvb8UVIG-14" target="_HntZ_YFahZdOvb8UVIG-18" edge="1">
          <mxGeometry relative="1" as="geometry">
            <mxPoint x="1686" y="238" as="targetPoint" />
          </mxGeometry>
        </mxCell>
        <mxCell id="_HntZ_YFahZdOvb8UVIG-14" value="Set Appointment&amp;nbsp;" style="points=[[0.25,0,0],[0.5,0,0],[0.75,0,0],[1,0.25,0],[1,0.5,0],[1,0.75,0],[0.75,1,0],[0.5,1,0],[0.25,1,0],[0,0.75,0],[0,0.5,0],[0,0.25,0]];shape=mxgraph.bpmn.task;whiteSpace=wrap;rectStyle=rounded;size=10;html=1;container=1;expand=0;collapsible=0;taskMarker=abstract;fontSize=16;labelBackgroundColor=none;" parent="dmzS7PUN9_p-txz57ALC-2" vertex="1">
          <mxGeometry x="1443" y="209" width="100" height="57" as="geometry" />
        </mxCell>
        <mxCell id="_HntZ_YFahZdOvb8UVIG-19" style="edgeStyle=none;curved=1;rounded=0;orthogonalLoop=1;jettySize=auto;html=1;exitX=1;exitY=0.5;exitDx=0;exitDy=0;exitPerimeter=0;fontSize=12;startSize=8;endSize=8;entryX=0;entryY=0.5;entryDx=0;entryDy=0;entryPerimeter=0;" parent="dmzS7PUN9_p-txz57ALC-2" source="_HntZ_YFahZdOvb8UVIG-16" target="_HntZ_YFahZdOvb8UVIG-20" edge="1">
          <mxGeometry relative="1" as="geometry">
            <mxPoint x="1692" y="796" as="targetPoint" />
          </mxGeometry>
        </mxCell>
        <mxCell id="_HntZ_YFahZdOvb8UVIG-16" value="Set Appointment&amp;nbsp;" style="points=[[0.25,0,0],[0.5,0,0],[0.75,0,0],[1,0.25,0],[1,0.5,0],[1,0.75,0],[0.75,1,0],[0.5,1,0],[0.25,1,0],[0,0.75,0],[0,0.5,0],[0,0.25,0]];shape=mxgraph.bpmn.task;whiteSpace=wrap;rectStyle=rounded;size=10;html=1;container=1;expand=0;collapsible=0;taskMarker=abstract;fontSize=16;labelBackgroundColor=none;" parent="dmzS7PUN9_p-txz57ALC-2" vertex="1">
          <mxGeometry x="1455" y="767" width="100" height="57" as="geometry" />
        </mxCell>
        <mxCell id="_HntZ_YFahZdOvb8UVIG-22" value="" style="edgeStyle=none;curved=1;rounded=0;orthogonalLoop=1;jettySize=auto;html=1;exitX=1;exitY=0.5;exitDx=0;exitDy=0;exitPerimeter=0;fontSize=12;startSize=8;endSize=8;entryX=0;entryY=0.5;entryDx=0;entryDy=0;entryPerimeter=0;" parent="dmzS7PUN9_p-txz57ALC-2" source="_HntZ_YFahZdOvb8UVIG-18" target="Zq4oTGP_m3IXektJbRXE-28" edge="1">
          <mxGeometry relative="1" as="geometry">
            <mxPoint x="2432" y="278" as="targetPoint" />
          </mxGeometry>
        </mxCell>
        <mxCell id="_HntZ_YFahZdOvb8UVIG-18" value="Request Appointment" style="points=[[0.25,0,0],[0.5,0,0],[0.75,0,0],[1,0.25,0],[1,0.5,0],[1,0.75,0],[0.75,1,0],[0.5,1,0],[0.25,1,0],[0,0.75,0],[0,0.5,0],[0,0.25,0]];shape=mxgraph.bpmn.task;whiteSpace=wrap;rectStyle=rounded;size=10;html=1;container=1;expand=0;collapsible=0;taskMarker=abstract;fontSize=16;labelBackgroundColor=none;" parent="dmzS7PUN9_p-txz57ALC-2" vertex="1">
          <mxGeometry x="2165" y="208.5" width="100" height="57" as="geometry" />
        </mxCell>
        <mxCell id="Zq4oTGP_m3IXektJbRXE-148" style="edgeStyle=none;curved=1;rounded=0;orthogonalLoop=1;jettySize=auto;html=1;exitX=1;exitY=0.5;exitDx=0;exitDy=0;exitPerimeter=0;fontSize=12;startSize=8;endSize=8;" parent="dmzS7PUN9_p-txz57ALC-2" source="_HntZ_YFahZdOvb8UVIG-20" edge="1">
          <mxGeometry relative="1" as="geometry">
            <mxPoint x="1794" y="796" as="targetPoint" />
          </mxGeometry>
        </mxCell>
        <mxCell id="_HntZ_YFahZdOvb8UVIG-20" value="Request Appointment" style="points=[[0.25,0,0],[0.5,0,0],[0.75,0,0],[1,0.25,0],[1,0.5,0],[1,0.75,0],[0.75,1,0],[0.5,1,0],[0.25,1,0],[0,0.75,0],[0,0.5,0],[0,0.25,0]];shape=mxgraph.bpmn.task;whiteSpace=wrap;rectStyle=rounded;size=10;html=1;container=1;expand=0;collapsible=0;taskMarker=abstract;fontSize=16;labelBackgroundColor=none;" parent="dmzS7PUN9_p-txz57ALC-2" vertex="1">
          <mxGeometry x="1639" y="767" width="100" height="57" as="geometry" />
        </mxCell>
        <mxCell id="_HntZ_YFahZdOvb8UVIG-33" value="Available?" style="text;strokeColor=none;fillColor=none;html=1;align=center;verticalAlign=middle;whiteSpace=wrap;rounded=0;fontSize=16;" parent="dmzS7PUN9_p-txz57ALC-2" vertex="1">
          <mxGeometry x="1420" y="134.75" width="60" height="30" as="geometry" />
        </mxCell>
        <mxCell id="_HntZ_YFahZdOvb8UVIG-34" value="Search Another Doctor?" style="points=[[0.25,0.25,0],[0.5,0,0],[0.75,0.25,0],[1,0.5,0],[0.75,0.75,0],[0.5,1,0],[0.25,0.75,0],[0,0.5,0]];shape=mxgraph.bpmn.gateway2;html=1;verticalLabelPosition=bottom;labelBackgroundColor=#ffffff;verticalAlign=top;align=center;perimeter=rhombusPerimeter;outlineConnect=0;outline=none;symbol=none;gwType=exclusive;fontSize=16;" parent="dmzS7PUN9_p-txz57ALC-2" vertex="1">
          <mxGeometry x="1503" y="29" width="50" height="50" as="geometry" />
        </mxCell>
        <mxCell id="_HntZ_YFahZdOvb8UVIG-36" value="" style="points=[[0.145,0.145,0],[0.5,0,0],[0.855,0.145,0],[1,0.5,0],[0.855,0.855,0],[0.5,1,0],[0.145,0.855,0],[0,0.5,0]];shape=mxgraph.bpmn.event;html=1;verticalLabelPosition=bottom;labelBackgroundColor=#ffffff;verticalAlign=top;align=center;perimeter=ellipsePerimeter;outlineConnect=0;aspect=fixed;outline=end;symbol=terminate2;fontSize=16;" parent="dmzS7PUN9_p-txz57ALC-2" vertex="1">
          <mxGeometry x="1643" y="29" width="48" height="48" as="geometry" />
        </mxCell>
        <mxCell id="_HntZ_YFahZdOvb8UVIG-35" style="edgeStyle=none;curved=1;rounded=0;orthogonalLoop=1;jettySize=auto;html=1;exitX=1;exitY=0.5;exitDx=0;exitDy=0;exitPerimeter=0;fontSize=12;startSize=8;endSize=8;" parent="dmzS7PUN9_p-txz57ALC-2" source="_HntZ_YFahZdOvb8UVIG-34" target="_HntZ_YFahZdOvb8UVIG-36" edge="1">
          <mxGeometry relative="1" as="geometry">
            <mxPoint x="1646" y="54" as="targetPoint" />
          </mxGeometry>
        </mxCell>
        <mxCell id="_HntZ_YFahZdOvb8UVIG-37" style="edgeStyle=orthogonalEdgeStyle;rounded=0;orthogonalLoop=1;jettySize=auto;html=1;exitX=0.5;exitY=0;exitDx=0;exitDy=0;exitPerimeter=0;entryX=0.5;entryY=0;entryDx=0;entryDy=0;entryPerimeter=0;fontSize=12;startSize=8;endSize=8;" parent="dmzS7PUN9_p-txz57ALC-2" source="_HntZ_YFahZdOvb8UVIG-34" target="zH8U9PDyr3ZS0vaO9rJW-30" edge="1">
          <mxGeometry relative="1" as="geometry" />
        </mxCell>
        <mxCell id="_HntZ_YFahZdOvb8UVIG-49" value="Yes" style="edgeLabel;html=1;align=center;verticalAlign=middle;resizable=0;points=[];fontSize=16;" parent="_HntZ_YFahZdOvb8UVIG-37" vertex="1" connectable="0">
          <mxGeometry x="-0.8951" y="1" relative="1" as="geometry">
            <mxPoint as="offset" />
          </mxGeometry>
        </mxCell>
        <mxCell id="_HntZ_YFahZdOvb8UVIG-38" style="edgeStyle=orthogonalEdgeStyle;rounded=0;orthogonalLoop=1;jettySize=auto;html=1;exitX=0.5;exitY=0;exitDx=0;exitDy=0;exitPerimeter=0;entryX=0;entryY=0.5;entryDx=0;entryDy=0;entryPerimeter=0;fontSize=12;startSize=8;endSize=8;" parent="dmzS7PUN9_p-txz57ALC-2" source="_HntZ_YFahZdOvb8UVIG-5" target="_HntZ_YFahZdOvb8UVIG-34" edge="1">
          <mxGeometry relative="1" as="geometry" />
        </mxCell>
        <mxCell id="_HntZ_YFahZdOvb8UVIG-41" value="No" style="edgeLabel;html=1;align=center;verticalAlign=middle;resizable=0;points=[];fontSize=16;" parent="_HntZ_YFahZdOvb8UVIG-38" vertex="1" connectable="0">
          <mxGeometry x="-0.4707" y="-4" relative="1" as="geometry">
            <mxPoint y="-1" as="offset" />
          </mxGeometry>
        </mxCell>
        <mxCell id="_HntZ_YFahZdOvb8UVIG-40" style="edgeStyle=orthogonalEdgeStyle;rounded=0;orthogonalLoop=1;jettySize=auto;html=1;exitX=0.5;exitY=1;exitDx=0;exitDy=0;exitPerimeter=0;entryX=0;entryY=0.5;entryDx=0;entryDy=0;entryPerimeter=0;fontSize=12;startSize=8;endSize=8;" parent="dmzS7PUN9_p-txz57ALC-2" source="zH8U9PDyr3ZS0vaO9rJW-23" target="zH8U9PDyr3ZS0vaO9rJW-25" edge="1">
          <mxGeometry relative="1" as="geometry" />
        </mxCell>
        <mxCell id="_HntZ_YFahZdOvb8UVIG-48" style="edgeStyle=none;curved=1;rounded=0;orthogonalLoop=1;jettySize=auto;html=1;exitX=1;exitY=0.5;exitDx=0;exitDy=0;exitPerimeter=0;fontSize=12;startSize=8;endSize=8;" parent="dmzS7PUN9_p-txz57ALC-2" source="_HntZ_YFahZdOvb8UVIG-44" edge="1">
          <mxGeometry relative="1" as="geometry">
            <mxPoint x="1640" y="588" as="targetPoint" />
          </mxGeometry>
        </mxCell>
        <mxCell id="_HntZ_YFahZdOvb8UVIG-44" value="Search Another&lt;br&gt;&amp;nbsp;Lab Technician?" style="points=[[0.25,0.25,0],[0.5,0,0],[0.75,0.25,0],[1,0.5,0],[0.75,0.75,0],[0.5,1,0],[0.25,0.75,0],[0,0.5,0]];shape=mxgraph.bpmn.gateway2;html=1;verticalLabelPosition=bottom;labelBackgroundColor=#ffffff;verticalAlign=top;align=center;perimeter=rhombusPerimeter;outlineConnect=0;outline=none;symbol=none;gwType=exclusive;fontSize=16;" parent="dmzS7PUN9_p-txz57ALC-2" vertex="1">
          <mxGeometry x="1493" y="562" width="50" height="50" as="geometry" />
        </mxCell>
        <mxCell id="_HntZ_YFahZdOvb8UVIG-45" style="edgeStyle=orthogonalEdgeStyle;rounded=0;orthogonalLoop=1;jettySize=auto;html=1;exitX=0.5;exitY=0;exitDx=0;exitDy=0;exitPerimeter=0;entryX=0;entryY=0.5;entryDx=0;entryDy=0;entryPerimeter=0;fontSize=12;startSize=8;endSize=8;" parent="dmzS7PUN9_p-txz57ALC-2" source="_HntZ_YFahZdOvb8UVIG-6" target="_HntZ_YFahZdOvb8UVIG-44" edge="1">
          <mxGeometry relative="1" as="geometry" />
        </mxCell>
        <mxCell id="_HntZ_YFahZdOvb8UVIG-50" value="No" style="edgeLabel;html=1;align=center;verticalAlign=middle;resizable=0;points=[];fontSize=16;" parent="_HntZ_YFahZdOvb8UVIG-45" vertex="1" connectable="0">
          <mxGeometry x="-0.2925" y="-4" relative="1" as="geometry">
            <mxPoint y="1" as="offset" />
          </mxGeometry>
        </mxCell>
        <mxCell id="_HntZ_YFahZdOvb8UVIG-47" value="" style="points=[[0.145,0.145,0],[0.5,0,0],[0.855,0.145,0],[1,0.5,0],[0.855,0.855,0],[0.5,1,0],[0.145,0.855,0],[0,0.5,0]];shape=mxgraph.bpmn.event;html=1;verticalLabelPosition=bottom;labelBackgroundColor=#ffffff;verticalAlign=top;align=center;perimeter=ellipsePerimeter;outlineConnect=0;aspect=fixed;outline=end;symbol=terminate2;fontSize=16;" parent="dmzS7PUN9_p-txz57ALC-2" vertex="1">
          <mxGeometry x="1639" y="563" width="48" height="48" as="geometry" />
        </mxCell>
        <mxCell id="_HntZ_YFahZdOvb8UVIG-51" style="edgeStyle=orthogonalEdgeStyle;rounded=0;orthogonalLoop=1;jettySize=auto;html=1;exitX=0.5;exitY=0;exitDx=0;exitDy=0;exitPerimeter=0;entryX=0.5;entryY=0;entryDx=0;entryDy=0;entryPerimeter=0;fontSize=12;startSize=8;endSize=8;" parent="dmzS7PUN9_p-txz57ALC-2" source="_HntZ_YFahZdOvb8UVIG-44" target="dmzS7PUN9_p-txz57ALC-17" edge="1">
          <mxGeometry relative="1" as="geometry" />
        </mxCell>
        <mxCell id="_HntZ_YFahZdOvb8UVIG-53" value="Yes" style="edgeLabel;html=1;align=center;verticalAlign=middle;resizable=0;points=[];fontSize=16;" parent="_HntZ_YFahZdOvb8UVIG-51" vertex="1" connectable="0">
          <mxGeometry x="-0.8722" y="-4" relative="1" as="geometry">
            <mxPoint as="offset" />
          </mxGeometry>
        </mxCell>
        <mxCell id="Zq4oTGP_m3IXektJbRXE-29" style="edgeStyle=none;curved=1;rounded=0;orthogonalLoop=1;jettySize=auto;html=1;exitX=1;exitY=0.5;exitDx=0;exitDy=0;exitPerimeter=0;fontSize=12;startSize=8;endSize=8;entryX=0;entryY=0.5;entryDx=0;entryDy=0;entryPerimeter=0;" parent="dmzS7PUN9_p-txz57ALC-2" source="Zq4oTGP_m3IXektJbRXE-28" target="Zq4oTGP_m3IXektJbRXE-31" edge="1">
          <mxGeometry relative="1" as="geometry">
            <mxPoint x="3650" y="164" as="targetPoint" />
          </mxGeometry>
        </mxCell>
        <mxCell id="Zq4oTGP_m3IXektJbRXE-28" value="Waiting for Response" style="points=[[0.25,0,0],[0.5,0,0],[0.75,0,0],[1,0.25,0],[1,0.5,0],[1,0.75,0],[0.75,1,0],[0.5,1,0],[0.25,1,0],[0,0.75,0],[0,0.5,0],[0,0.25,0]];shape=mxgraph.bpmn.task;whiteSpace=wrap;rectStyle=rounded;size=10;html=1;container=1;expand=0;collapsible=0;taskMarker=abstract;fontSize=16;labelBackgroundColor=none;" parent="dmzS7PUN9_p-txz57ALC-2" vertex="1">
          <mxGeometry x="3409" y="135" width="100" height="57" as="geometry" />
        </mxCell>
        <mxCell id="Zq4oTGP_m3IXektJbRXE-31" value="" style="points=[[0.25,0.25,0],[0.5,0,0],[0.75,0.25,0],[1,0.5,0],[0.75,0.75,0],[0.5,1,0],[0.25,0.75,0],[0,0.5,0]];shape=mxgraph.bpmn.gateway2;html=1;verticalLabelPosition=bottom;labelBackgroundColor=#ffffff;verticalAlign=top;align=center;perimeter=rhombusPerimeter;outlineConnect=0;outline=none;symbol=none;gwType=exclusive;fontSize=16;" parent="dmzS7PUN9_p-txz57ALC-2" vertex="1">
          <mxGeometry x="3907" y="140.25" width="50" height="50" as="geometry" />
        </mxCell>
        <mxCell id="Zq4oTGP_m3IXektJbRXE-37" style="edgeStyle=none;curved=1;rounded=0;orthogonalLoop=1;jettySize=auto;html=1;exitX=1;exitY=0.5;exitDx=0;exitDy=0;exitPerimeter=0;fontSize=12;startSize=8;endSize=8;" parent="dmzS7PUN9_p-txz57ALC-2" source="Zq4oTGP_m3IXektJbRXE-34" edge="1">
          <mxGeometry relative="1" as="geometry">
            <mxPoint x="4110" y="17.75" as="targetPoint" />
          </mxGeometry>
        </mxCell>
        <mxCell id="Zq4oTGP_m3IXektJbRXE-34" value="Request Declined" style="points=[[0.25,0,0],[0.5,0,0],[0.75,0,0],[1,0.25,0],[1,0.5,0],[1,0.75,0],[0.75,1,0],[0.5,1,0],[0.25,1,0],[0,0.75,0],[0,0.5,0],[0,0.25,0]];shape=mxgraph.bpmn.task;whiteSpace=wrap;rectStyle=rounded;size=10;html=1;container=1;expand=0;collapsible=0;taskMarker=abstract;fontSize=16;labelBackgroundColor=none;" parent="dmzS7PUN9_p-txz57ALC-2" vertex="1">
          <mxGeometry x="3882" y="-10" width="100" height="57" as="geometry" />
        </mxCell>
        <mxCell id="Zq4oTGP_m3IXektJbRXE-35" style="edgeStyle=none;curved=1;rounded=0;orthogonalLoop=1;jettySize=auto;html=1;exitX=0.5;exitY=0;exitDx=0;exitDy=0;exitPerimeter=0;entryX=0.5;entryY=1;entryDx=0;entryDy=0;entryPerimeter=0;fontSize=12;startSize=8;endSize=8;" parent="dmzS7PUN9_p-txz57ALC-2" source="Zq4oTGP_m3IXektJbRXE-31" target="Zq4oTGP_m3IXektJbRXE-34" edge="1">
          <mxGeometry relative="1" as="geometry" />
        </mxCell>
        <mxCell id="Zq4oTGP_m3IXektJbRXE-112" value="No" style="edgeLabel;html=1;align=center;verticalAlign=middle;resizable=0;points=[];fontSize=16;" parent="Zq4oTGP_m3IXektJbRXE-35" vertex="1" connectable="0">
          <mxGeometry x="-0.008" y="-4" relative="1" as="geometry">
            <mxPoint as="offset" />
          </mxGeometry>
        </mxCell>
        <mxCell id="Zq4oTGP_m3IXektJbRXE-38" value="" style="points=[[0.145,0.145,0],[0.5,0,0],[0.855,0.145,0],[1,0.5,0],[0.855,0.855,0],[0.5,1,0],[0.145,0.855,0],[0,0.5,0]];shape=mxgraph.bpmn.event;html=1;verticalLabelPosition=bottom;labelBackgroundColor=#ffffff;verticalAlign=top;align=center;perimeter=ellipsePerimeter;outlineConnect=0;aspect=fixed;outline=end;symbol=terminate2;fontSize=16;" parent="dmzS7PUN9_p-txz57ALC-2" vertex="1">
          <mxGeometry x="4109" y="-5.25" width="48" height="48" as="geometry" />
        </mxCell>
        <mxCell id="Zq4oTGP_m3IXektJbRXE-40" style="edgeStyle=none;curved=1;rounded=0;orthogonalLoop=1;jettySize=auto;html=1;exitX=1;exitY=0.5;exitDx=0;exitDy=0;exitPerimeter=0;fontSize=12;startSize=8;endSize=8;" parent="dmzS7PUN9_p-txz57ALC-2" source="Zq4oTGP_m3IXektJbRXE-39" edge="1">
          <mxGeometry relative="1" as="geometry">
            <mxPoint x="4272" y="289.75" as="targetPoint" />
          </mxGeometry>
        </mxCell>
        <mxCell id="Zq4oTGP_m3IXektJbRXE-39" value="Proceed to Online Consultation" style="points=[[0.25,0,0],[0.5,0,0],[0.75,0,0],[1,0.25,0],[1,0.5,0],[1,0.75,0],[0.75,1,0],[0.5,1,0],[0.25,1,0],[0,0.75,0],[0,0.5,0],[0,0.25,0]];shape=mxgraph.bpmn.task;whiteSpace=wrap;rectStyle=rounded;size=10;html=1;container=1;expand=0;collapsible=0;taskMarker=abstract;fontSize=16;labelBackgroundColor=none;" parent="dmzS7PUN9_p-txz57ALC-2" vertex="1">
          <mxGeometry x="4076" y="260.75" width="114" height="57" as="geometry" />
        </mxCell>
        <mxCell id="Zq4oTGP_m3IXektJbRXE-43" style="edgeStyle=none;curved=1;rounded=0;orthogonalLoop=1;jettySize=auto;html=1;exitX=1;exitY=0.5;exitDx=0;exitDy=0;exitPerimeter=0;fontSize=12;startSize=8;endSize=8;" parent="dmzS7PUN9_p-txz57ALC-2" source="Zq4oTGP_m3IXektJbRXE-42" edge="1">
          <mxGeometry relative="1" as="geometry">
            <mxPoint x="4438" y="293.75" as="targetPoint" />
          </mxGeometry>
        </mxCell>
        <mxCell id="Zq4oTGP_m3IXektJbRXE-42" value="Awaiting Doctor&#39;s Arrival" style="points=[[0.25,0,0],[0.5,0,0],[0.75,0,0],[1,0.25,0],[1,0.5,0],[1,0.75,0],[0.75,1,0],[0.5,1,0],[0.25,1,0],[0,0.75,0],[0,0.5,0],[0,0.25,0]];shape=mxgraph.bpmn.task;whiteSpace=wrap;rectStyle=rounded;size=10;html=1;container=1;expand=0;collapsible=0;taskMarker=abstract;fontSize=16;labelBackgroundColor=none;" parent="dmzS7PUN9_p-txz57ALC-2" vertex="1">
          <mxGeometry x="4270" y="264.75" width="114" height="57" as="geometry" />
        </mxCell>
        <mxCell id="Zq4oTGP_m3IXektJbRXE-49" style="edgeStyle=orthogonalEdgeStyle;rounded=0;orthogonalLoop=1;jettySize=auto;html=1;exitX=0.5;exitY=1;exitDx=0;exitDy=0;exitPerimeter=0;fontSize=12;startSize=8;endSize=8;entryX=0;entryY=0.5;entryDx=0;entryDy=0;entryPerimeter=0;" parent="dmzS7PUN9_p-txz57ALC-2" source="Zq4oTGP_m3IXektJbRXE-44" target="Zq4oTGP_m3IXektJbRXE-48" edge="1">
          <mxGeometry relative="1" as="geometry">
            <mxPoint x="4462" y="399.75" as="targetPoint" />
          </mxGeometry>
        </mxCell>
        <mxCell id="Zq4oTGP_m3IXektJbRXE-88" value="Yes" style="edgeLabel;html=1;align=center;verticalAlign=middle;resizable=0;points=[];fontSize=16;" parent="Zq4oTGP_m3IXektJbRXE-49" vertex="1" connectable="0">
          <mxGeometry x="-0.171" y="2" relative="1" as="geometry">
            <mxPoint as="offset" />
          </mxGeometry>
        </mxCell>
        <mxCell id="Zq4oTGP_m3IXektJbRXE-89" style="edgeStyle=orthogonalEdgeStyle;rounded=0;orthogonalLoop=1;jettySize=auto;html=1;exitX=0.5;exitY=0;exitDx=0;exitDy=0;exitPerimeter=0;fontSize=12;startSize=8;endSize=8;entryX=0;entryY=0.5;entryDx=0;entryDy=0;entryPerimeter=0;" parent="dmzS7PUN9_p-txz57ALC-2" source="Zq4oTGP_m3IXektJbRXE-44" target="Zq4oTGP_m3IXektJbRXE-90" edge="1">
          <mxGeometry relative="1" as="geometry">
            <mxPoint x="4716" y="194" as="targetPoint" />
          </mxGeometry>
        </mxCell>
        <mxCell id="Zq4oTGP_m3IXektJbRXE-92" value="No" style="edgeLabel;html=1;align=center;verticalAlign=middle;resizable=0;points=[];fontSize=16;" parent="Zq4oTGP_m3IXektJbRXE-89" vertex="1" connectable="0">
          <mxGeometry x="0.268" y="2" relative="1" as="geometry">
            <mxPoint x="1" as="offset" />
          </mxGeometry>
        </mxCell>
        <mxCell id="Zq4oTGP_m3IXektJbRXE-44" value="" style="points=[[0.25,0.25,0],[0.5,0,0],[0.75,0.25,0],[1,0.5,0],[0.75,0.75,0],[0.5,1,0],[0.25,0.75,0],[0,0.5,0]];shape=mxgraph.bpmn.gateway2;html=1;verticalLabelPosition=bottom;labelBackgroundColor=#ffffff;verticalAlign=top;align=center;perimeter=rhombusPerimeter;outlineConnect=0;outline=none;symbol=none;gwType=exclusive;fontSize=16;" parent="dmzS7PUN9_p-txz57ALC-2" vertex="1">
          <mxGeometry x="4549" y="268.25" width="50" height="50" as="geometry" />
        </mxCell>
        <mxCell id="Zq4oTGP_m3IXektJbRXE-45" value="Doctor Arrived?" style="text;strokeColor=none;fillColor=none;html=1;align=center;verticalAlign=middle;whiteSpace=wrap;rounded=0;fontSize=16;" parent="dmzS7PUN9_p-txz57ALC-2" vertex="1">
          <mxGeometry x="4618" y="499.75" width="60" height="30" as="geometry" />
        </mxCell>
        <mxCell id="Zq4oTGP_m3IXektJbRXE-48" value="&amp;nbsp;Doctor Arrive" style="points=[[0.25,0,0],[0.5,0,0],[0.75,0,0],[1,0.25,0],[1,0.5,0],[1,0.75,0],[0.75,1,0],[0.5,1,0],[0.25,1,0],[0,0.75,0],[0,0.5,0],[0,0.25,0]];shape=mxgraph.bpmn.task;whiteSpace=wrap;rectStyle=rounded;size=10;html=1;container=1;expand=0;collapsible=0;taskMarker=abstract;fontSize=16;labelBackgroundColor=none;" parent="dmzS7PUN9_p-txz57ALC-2" vertex="1">
          <mxGeometry x="4594" y="413.75" width="114" height="57" as="geometry" />
        </mxCell>
        <mxCell id="Zq4oTGP_m3IXektJbRXE-58" style="edgeStyle=none;curved=1;rounded=0;orthogonalLoop=1;jettySize=auto;html=1;exitX=1;exitY=0.5;exitDx=0;exitDy=0;exitPerimeter=0;fontSize=12;startSize=8;endSize=8;" parent="dmzS7PUN9_p-txz57ALC-2" source="Zq4oTGP_m3IXektJbRXE-56" edge="1">
          <mxGeometry relative="1" as="geometry">
            <mxPoint x="4548" y="293.75" as="targetPoint" />
          </mxGeometry>
        </mxCell>
        <mxCell id="Zq4oTGP_m3IXektJbRXE-56" value="30 minutes" style="points=[[0.25,0.25,0],[0.5,0,0],[0.75,0.25,0],[1,0.5,0],[0.75,0.75,0],[0.5,1,0],[0.25,0.75,0],[0,0.5,0]];shape=mxgraph.bpmn.gateway2;html=1;verticalLabelPosition=bottom;labelBackgroundColor=#ffffff;verticalAlign=top;align=center;perimeter=rhombusPerimeter;outlineConnect=0;outline=standard;symbol=timer;fontSize=16;" parent="dmzS7PUN9_p-txz57ALC-2" vertex="1">
          <mxGeometry x="4439" y="268.25" width="50" height="50" as="geometry" />
        </mxCell>
        <mxCell id="Zq4oTGP_m3IXektJbRXE-84" value="Conduct Online Consultation" style="points=[[0.25,0,0],[0.5,0,0],[0.75,0,0],[1,0.25,0],[1,0.5,0],[1,0.75,0],[0.75,1,0],[0.5,1,0],[0.25,1,0],[0,0.75,0],[0,0.5,0],[0,0.25,0]];shape=mxgraph.bpmn.task;whiteSpace=wrap;rectStyle=rounded;size=10;html=1;container=1;expand=0;collapsible=0;taskMarker=abstract;fontSize=16;labelBackgroundColor=none;" parent="dmzS7PUN9_p-txz57ALC-2" vertex="1">
          <mxGeometry x="4790" y="413.75" width="114" height="57" as="geometry" />
        </mxCell>
        <mxCell id="Zq4oTGP_m3IXektJbRXE-85" style="edgeStyle=none;curved=1;rounded=0;orthogonalLoop=1;jettySize=auto;html=1;exitX=1;exitY=0.5;exitDx=0;exitDy=0;exitPerimeter=0;entryX=0;entryY=0.5;entryDx=0;entryDy=0;entryPerimeter=0;fontSize=12;startSize=8;endSize=8;" parent="dmzS7PUN9_p-txz57ALC-2" source="Zq4oTGP_m3IXektJbRXE-48" target="Zq4oTGP_m3IXektJbRXE-84" edge="1">
          <mxGeometry relative="1" as="geometry" />
        </mxCell>
        <mxCell id="Zq4oTGP_m3IXektJbRXE-87" value="Doctor Arrive?" style="text;strokeColor=none;fillColor=none;html=1;align=center;verticalAlign=middle;whiteSpace=wrap;rounded=0;fontSize=16;" parent="dmzS7PUN9_p-txz57ALC-2" vertex="1">
          <mxGeometry x="4599" y="280" width="60" height="30" as="geometry" />
        </mxCell>
        <mxCell id="Zq4oTGP_m3IXektJbRXE-90" value="" style="points=[[0.145,0.145,0],[0.5,0,0],[0.855,0.145,0],[1,0.5,0],[0.855,0.855,0],[0.5,1,0],[0.145,0.855,0],[0,0.5,0]];shape=mxgraph.bpmn.event;html=1;verticalLabelPosition=bottom;labelBackgroundColor=#ffffff;verticalAlign=top;align=center;perimeter=ellipsePerimeter;outlineConnect=0;aspect=fixed;outline=end;symbol=terminate2;fontSize=16;" parent="dmzS7PUN9_p-txz57ALC-2" vertex="1">
          <mxGeometry x="4831" y="181.5" width="48" height="48" as="geometry" />
        </mxCell>
        <mxCell id="Zq4oTGP_m3IXektJbRXE-102" style="edgeStyle=none;curved=1;rounded=0;orthogonalLoop=1;jettySize=auto;html=1;exitX=1;exitY=0.5;exitDx=0;exitDy=0;exitPerimeter=0;fontSize=12;startSize=8;endSize=8;dashed=1;endArrow=blockThin;endFill=0;startArrow=oval;startFill=0;" parent="dmzS7PUN9_p-txz57ALC-2" source="Zq4oTGP_m3IXektJbRXE-100" edge="1">
          <mxGeometry relative="1" as="geometry">
            <mxPoint x="5352" y="442" as="targetPoint" />
          </mxGeometry>
        </mxCell>
        <mxCell id="Zq4oTGP_m3IXektJbRXE-100" value="" style="points=[[0.25,0.25,0],[0.5,0,0],[0.75,0.25,0],[1,0.5,0],[0.75,0.75,0],[0.5,1,0],[0.25,0.75,0],[0,0.5,0]];shape=mxgraph.bpmn.gateway2;html=1;verticalLabelPosition=bottom;labelBackgroundColor=#ffffff;verticalAlign=top;align=center;perimeter=rhombusPerimeter;outlineConnect=0;outline=catching;symbol=message;fontSize=16;" parent="dmzS7PUN9_p-txz57ALC-2" vertex="1">
          <mxGeometry x="5241" y="416.25" width="50" height="50" as="geometry" />
        </mxCell>
        <mxCell id="Zq4oTGP_m3IXektJbRXE-104" style="edgeStyle=none;curved=1;rounded=0;orthogonalLoop=1;jettySize=auto;html=1;exitX=1;exitY=0.5;exitDx=0;exitDy=0;exitPerimeter=0;fontSize=12;startSize=8;endSize=8;" parent="dmzS7PUN9_p-txz57ALC-2" source="Zq4oTGP_m3IXektJbRXE-103" edge="1">
          <mxGeometry relative="1" as="geometry">
            <mxPoint x="5530" y="446" as="targetPoint" />
          </mxGeometry>
        </mxCell>
        <mxCell id="Zq4oTGP_m3IXektJbRXE-103" value="View Prescription Medication" style="points=[[0.25,0,0],[0.5,0,0],[0.75,0,0],[1,0.25,0],[1,0.5,0],[1,0.75,0],[0.75,1,0],[0.5,1,0],[0.25,1,0],[0,0.75,0],[0,0.5,0],[0,0.25,0]];shape=mxgraph.bpmn.task;whiteSpace=wrap;rectStyle=rounded;size=10;html=1;container=1;expand=0;collapsible=0;taskMarker=abstract;fontSize=16;labelBackgroundColor=none;" parent="dmzS7PUN9_p-txz57ALC-2" vertex="1">
          <mxGeometry x="5352" y="417.25" width="114" height="57" as="geometry" />
        </mxCell>
        <mxCell id="Zq4oTGP_m3IXektJbRXE-105" value="" style="points=[[0.145,0.145,0],[0.5,0,0],[0.855,0.145,0],[1,0.5,0],[0.855,0.855,0],[0.5,1,0],[0.145,0.855,0],[0,0.5,0]];shape=mxgraph.bpmn.event;html=1;verticalLabelPosition=bottom;labelBackgroundColor=#ffffff;verticalAlign=top;align=center;perimeter=ellipsePerimeter;outlineConnect=0;aspect=fixed;outline=end;symbol=terminate2;fontSize=16;" parent="dmzS7PUN9_p-txz57ALC-2" vertex="1">
          <mxGeometry x="5529" y="418.25" width="48" height="48" as="geometry" />
        </mxCell>
        <mxCell id="Zq4oTGP_m3IXektJbRXE-109" style="edgeStyle=orthogonalEdgeStyle;rounded=0;orthogonalLoop=1;jettySize=auto;html=1;exitX=0.5;exitY=1;exitDx=0;exitDy=0;exitPerimeter=0;entryX=0;entryY=0.5;entryDx=0;entryDy=0;entryPerimeter=0;fontSize=12;startSize=8;endSize=8;" parent="dmzS7PUN9_p-txz57ALC-2" source="Zq4oTGP_m3IXektJbRXE-31" target="Zq4oTGP_m3IXektJbRXE-39" edge="1">
          <mxGeometry relative="1" as="geometry" />
        </mxCell>
        <mxCell id="Zq4oTGP_m3IXektJbRXE-110" value="Yes" style="edgeLabel;html=1;align=center;verticalAlign=middle;resizable=0;points=[];fontSize=16;" parent="Zq4oTGP_m3IXektJbRXE-109" vertex="1" connectable="0">
          <mxGeometry x="-0.5414" relative="1" as="geometry">
            <mxPoint as="offset" />
          </mxGeometry>
        </mxCell>
        <mxCell id="Zq4oTGP_m3IXektJbRXE-111" value="Accepted?" style="text;strokeColor=none;fillColor=none;html=1;align=center;verticalAlign=middle;whiteSpace=wrap;rounded=0;fontSize=16;" parent="dmzS7PUN9_p-txz57ALC-2" vertex="1">
          <mxGeometry x="3971" y="150.25" width="60" height="30" as="geometry" />
        </mxCell>
        <mxCell id="Zq4oTGP_m3IXektJbRXE-114" value="" style="shape=mxgraph.bpmn.data;labelPosition=center;verticalLabelPosition=bottom;align=center;verticalAlign=top;size=18;html=1;bpmnTransferType=output;fontSize=16;" parent="dmzS7PUN9_p-txz57ALC-2" vertex="1">
          <mxGeometry x="5002" y="412.25" width="40" height="60" as="geometry" />
        </mxCell>
        <mxCell id="Zq4oTGP_m3IXektJbRXE-115" style="edgeStyle=none;curved=1;rounded=0;orthogonalLoop=1;jettySize=auto;html=1;exitX=1;exitY=0.5;exitDx=0;exitDy=0;exitPerimeter=0;entryX=0;entryY=0.5;entryDx=0;entryDy=0;entryPerimeter=0;fontSize=12;startSize=8;endSize=8;" parent="dmzS7PUN9_p-txz57ALC-2" source="Zq4oTGP_m3IXektJbRXE-84" target="Zq4oTGP_m3IXektJbRXE-114" edge="1">
          <mxGeometry relative="1" as="geometry" />
        </mxCell>
        <mxCell id="Zq4oTGP_m3IXektJbRXE-149" value="" style="points=[[0.145,0.145,0],[0.5,0,0],[0.855,0.145,0],[1,0.5,0],[0.855,0.855,0],[0.5,1,0],[0.145,0.855,0],[0,0.5,0]];shape=mxgraph.bpmn.event;html=1;verticalLabelPosition=bottom;labelBackgroundColor=#ffffff;verticalAlign=top;align=center;perimeter=ellipsePerimeter;outlineConnect=0;aspect=fixed;outline=throwing;symbol=message;fontSize=16;" parent="dmzS7PUN9_p-txz57ALC-2" vertex="1">
          <mxGeometry x="1796" y="774" width="50" height="50" as="geometry" />
        </mxCell>
        <mxCell id="dmzS7PUN9_p-txz57ALC-3" value="zzz" style="swimlane;startSize=20;horizontal=0;html=1;fontSize=16;labelBackgroundColor=none;" parent="dmzS7PUN9_p-txz57ALC-1" vertex="1">
          <mxGeometry x="20" y="1011" width="5953" height="472" as="geometry" />
        </mxCell>
        <mxCell id="Zq4oTGP_m3IXektJbRXE-23" style="edgeStyle=none;curved=1;rounded=0;orthogonalLoop=1;jettySize=auto;html=1;exitX=1;exitY=0.5;exitDx=0;exitDy=0;exitPerimeter=0;fontSize=12;startSize=8;endSize=8;" parent="dmzS7PUN9_p-txz57ALC-3" source="Zq4oTGP_m3IXektJbRXE-22" edge="1">
          <mxGeometry relative="1" as="geometry">
            <mxPoint x="3208" y="87" as="targetPoint" />
          </mxGeometry>
        </mxCell>
        <mxCell id="Zq4oTGP_m3IXektJbRXE-22" value="" style="points=[[0.145,0.145,0],[0.5,0,0],[0.855,0.145,0],[1,0.5,0],[0.855,0.855,0],[0.5,1,0],[0.145,0.855,0],[0,0.5,0]];shape=mxgraph.bpmn.event;html=1;verticalLabelPosition=bottom;labelBackgroundColor=#ffffff;verticalAlign=top;align=center;perimeter=ellipsePerimeter;outlineConnect=0;aspect=fixed;outline=catching;symbol=message;fontSize=16;" parent="dmzS7PUN9_p-txz57ALC-3" vertex="1">
          <mxGeometry x="3091" y="62.5" width="50" height="50" as="geometry" />
        </mxCell>
        <mxCell id="Zq4oTGP_m3IXektJbRXE-25" style="edgeStyle=none;curved=1;rounded=0;orthogonalLoop=1;jettySize=auto;html=1;exitX=1;exitY=0.5;exitDx=0;exitDy=0;exitPerimeter=0;fontSize=12;startSize=8;endSize=8;" parent="dmzS7PUN9_p-txz57ALC-3" source="Zq4oTGP_m3IXektJbRXE-24" edge="1">
          <mxGeometry relative="1" as="geometry">
            <mxPoint x="3428" y="88" as="targetPoint" />
          </mxGeometry>
        </mxCell>
        <mxCell id="Zq4oTGP_m3IXektJbRXE-24" value="Send Response Request Appointment" style="points=[[0.25,0,0],[0.5,0,0],[0.75,0,0],[1,0.25,0],[1,0.5,0],[1,0.75,0],[0.75,1,0],[0.5,1,0],[0.25,1,0],[0,0.75,0],[0,0.5,0],[0,0.25,0]];shape=mxgraph.bpmn.task;whiteSpace=wrap;rectStyle=rounded;size=10;html=1;container=1;expand=0;collapsible=0;taskMarker=abstract;fontSize=16;labelBackgroundColor=none;" parent="dmzS7PUN9_p-txz57ALC-3" vertex="1">
          <mxGeometry x="3207" y="53" width="134" height="69" as="geometry" />
        </mxCell>
        <mxCell id="Zq4oTGP_m3IXektJbRXE-26" value="Send Appointment&lt;br&gt;&amp;nbsp;Response" style="points=[[0.25,0.25,0],[0.5,0,0],[0.75,0.25,0],[1,0.5,0],[0.75,0.75,0],[0.5,1,0],[0.25,0.75,0],[0,0.5,0]];shape=mxgraph.bpmn.gateway2;html=1;verticalLabelPosition=bottom;labelBackgroundColor=#ffffff;verticalAlign=top;align=center;perimeter=rhombusPerimeter;outlineConnect=0;outline=throwing;symbol=message;fontSize=16;" parent="dmzS7PUN9_p-txz57ALC-3" vertex="1">
          <mxGeometry x="3429" y="62.5" width="50" height="50" as="geometry" />
        </mxCell>
        <mxCell id="Zq4oTGP_m3IXektJbRXE-51" value="Send link" style="points=[[0.25,0.25,0],[0.5,0,0],[0.75,0.25,0],[1,0.5,0],[0.75,0.75,0],[0.5,1,0],[0.25,0.75,0],[0,0.5,0]];shape=mxgraph.bpmn.gateway2;html=1;verticalLabelPosition=bottom;labelBackgroundColor=#ffffff;verticalAlign=top;align=center;perimeter=rhombusPerimeter;outlineConnect=0;outline=throwing;symbol=message;fontSize=16;" parent="dmzS7PUN9_p-txz57ALC-3" vertex="1">
          <mxGeometry x="3911" y="62.5" width="50" height="50" as="geometry" />
        </mxCell>
        <mxCell id="Zq4oTGP_m3IXektJbRXE-67" value="Provide Online Consultation&amp;nbsp; Link" style="points=[[0.25,0,0],[0.5,0,0],[0.75,0,0],[1,0.25,0],[1,0.5,0],[1,0.75,0],[0.75,1,0],[0.5,1,0],[0.25,1,0],[0,0.75,0],[0,0.5,0],[0,0.25,0]];shape=mxgraph.bpmn.task;whiteSpace=wrap;rectStyle=rounded;size=10;html=1;container=1;expand=0;collapsible=0;taskMarker=abstract;fontSize=16;labelBackgroundColor=none;" parent="dmzS7PUN9_p-txz57ALC-3" vertex="1">
          <mxGeometry x="3699" y="53" width="134" height="69" as="geometry" />
        </mxCell>
        <mxCell id="Zq4oTGP_m3IXektJbRXE-69" value="" style="points=[[0.145,0.145,0],[0.5,0,0],[0.855,0.145,0],[1,0.5,0],[0.855,0.855,0],[0.5,1,0],[0.145,0.855,0],[0,0.5,0]];shape=mxgraph.bpmn.event;html=1;verticalLabelPosition=bottom;labelBackgroundColor=#ffffff;verticalAlign=top;align=center;perimeter=ellipsePerimeter;outlineConnect=0;aspect=fixed;outline=standard;symbol=conditional;fontSize=16;" parent="dmzS7PUN9_p-txz57ALC-3" vertex="1">
          <mxGeometry x="3571" y="62.5" width="50" height="50" as="geometry" />
        </mxCell>
        <mxCell id="Zq4oTGP_m3IXektJbRXE-70" style="edgeStyle=none;curved=1;rounded=0;orthogonalLoop=1;jettySize=auto;html=1;exitX=1;exitY=0.5;exitDx=0;exitDy=0;exitPerimeter=0;entryX=0;entryY=0.5;entryDx=0;entryDy=0;entryPerimeter=0;fontSize=12;startSize=8;endSize=8;" parent="dmzS7PUN9_p-txz57ALC-3" source="Zq4oTGP_m3IXektJbRXE-26" target="Zq4oTGP_m3IXektJbRXE-69" edge="1">
          <mxGeometry relative="1" as="geometry" />
        </mxCell>
        <mxCell id="Zq4oTGP_m3IXektJbRXE-72" style="edgeStyle=none;curved=1;rounded=0;orthogonalLoop=1;jettySize=auto;html=1;exitX=1;exitY=0.5;exitDx=0;exitDy=0;exitPerimeter=0;entryX=0;entryY=0.5;entryDx=0;entryDy=0;entryPerimeter=0;fontSize=12;startSize=8;endSize=8;" parent="dmzS7PUN9_p-txz57ALC-3" source="Zq4oTGP_m3IXektJbRXE-69" target="Zq4oTGP_m3IXektJbRXE-67" edge="1">
          <mxGeometry relative="1" as="geometry" />
        </mxCell>
        <mxCell id="Zq4oTGP_m3IXektJbRXE-74" style="edgeStyle=none;curved=1;rounded=0;orthogonalLoop=1;jettySize=auto;html=1;exitX=1;exitY=0.5;exitDx=0;exitDy=0;exitPerimeter=0;entryX=0;entryY=0.5;entryDx=0;entryDy=0;entryPerimeter=0;fontSize=12;startSize=8;endSize=8;" parent="dmzS7PUN9_p-txz57ALC-3" source="Zq4oTGP_m3IXektJbRXE-67" target="Zq4oTGP_m3IXektJbRXE-51" edge="1">
          <mxGeometry relative="1" as="geometry" />
        </mxCell>
        <mxCell id="_HntZ_YFahZdOvb8UVIG-61" style="edgeStyle=none;curved=1;rounded=0;orthogonalLoop=1;jettySize=auto;html=1;exitX=1;exitY=0.5;exitDx=0;exitDy=0;exitPerimeter=0;fontSize=12;startSize=8;endSize=8;" parent="dmzS7PUN9_p-txz57ALC-3" source="_HntZ_YFahZdOvb8UVIG-29" edge="1">
          <mxGeometry relative="1" as="geometry">
            <mxPoint x="2312" y="84" as="targetPoint" />
          </mxGeometry>
        </mxCell>
        <mxCell id="_HntZ_YFahZdOvb8UVIG-29" value="Received&lt;br style=&quot;border-color: var(--border-color);&quot;&gt;Request&lt;br style=&quot;border-color: var(--border-color);&quot;&gt;&amp;nbsp;Appointment" style="points=[[0.25,0.25,0],[0.5,0,0],[0.75,0.25,0],[1,0.5,0],[0.75,0.75,0],[0.5,1,0],[0.25,0.75,0],[0,0.5,0]];shape=mxgraph.bpmn.gateway2;html=1;verticalLabelPosition=bottom;labelBackgroundColor=#ffffff;verticalAlign=top;align=center;perimeter=rhombusPerimeter;outlineConnect=0;outline=catching;symbol=message;fontSize=16;" parent="dmzS7PUN9_p-txz57ALC-3" vertex="1">
          <mxGeometry x="2192" y="59" width="50" height="50" as="geometry" />
        </mxCell>
        <mxCell id="_HntZ_YFahZdOvb8UVIG-62" value="Received Request Appointment" style="points=[[0.25,0,0],[0.5,0,0],[0.75,0,0],[1,0.25,0],[1,0.5,0],[1,0.75,0],[0.75,1,0],[0.5,1,0],[0.25,1,0],[0,0.75,0],[0,0.5,0],[0,0.25,0]];shape=mxgraph.bpmn.task;whiteSpace=wrap;rectStyle=rounded;size=10;html=1;container=1;expand=0;collapsible=0;taskMarker=abstract;fontSize=16;labelBackgroundColor=none;" parent="dmzS7PUN9_p-txz57ALC-3" vertex="1">
          <mxGeometry x="2311" y="55.5" width="118" height="57" as="geometry" />
        </mxCell>
        <mxCell id="dmzS7PUN9_p-txz57ALC-4" value="z" style="swimlane;startSize=20;horizontal=0;html=1;fontSize=16;labelBackgroundColor=none;" parent="dmzS7PUN9_p-txz57ALC-1" vertex="1">
          <mxGeometry x="20" y="1483" width="5953" height="442" as="geometry" />
        </mxCell>
        <mxCell id="_HntZ_YFahZdOvb8UVIG-64" value="" style="points=[[0.25,0.25,0],[0.5,0,0],[0.75,0.25,0],[1,0.5,0],[0.75,0.75,0],[0.5,1,0],[0.25,0.75,0],[0,0.5,0]];shape=mxgraph.bpmn.gateway2;html=1;verticalLabelPosition=bottom;labelBackgroundColor=#ffffff;verticalAlign=top;align=center;perimeter=rhombusPerimeter;outlineConnect=0;outline=catching;symbol=message;fontSize=16;" parent="dmzS7PUN9_p-txz57ALC-4" vertex="1">
          <mxGeometry x="2345" y="142.5" width="50" height="50" as="geometry" />
        </mxCell>
        <mxCell id="_HntZ_YFahZdOvb8UVIG-66" value="Respond Request Appointment" style="points=[[0.25,0,0],[0.5,0,0],[0.75,0,0],[1,0.25,0],[1,0.5,0],[1,0.75,0],[0.75,1,0],[0.5,1,0],[0.25,1,0],[0,0.75,0],[0,0.5,0],[0,0.25,0]];shape=mxgraph.bpmn.task;whiteSpace=wrap;rectStyle=rounded;size=10;html=1;container=1;expand=0;collapsible=0;taskMarker=abstract;fontSize=16;labelBackgroundColor=none;" parent="dmzS7PUN9_p-txz57ALC-4" vertex="1">
          <mxGeometry x="2467" y="139" width="118" height="57" as="geometry" />
        </mxCell>
        <mxCell id="Zq4oTGP_m3IXektJbRXE-1" value="" style="points=[[0.25,0.25,0],[0.5,0,0],[0.75,0.25,0],[1,0.5,0],[0.75,0.75,0],[0.5,1,0],[0.25,0.75,0],[0,0.5,0]];shape=mxgraph.bpmn.gateway2;html=1;verticalLabelPosition=bottom;labelBackgroundColor=#ffffff;verticalAlign=top;align=center;perimeter=rhombusPerimeter;outlineConnect=0;outline=none;symbol=none;gwType=exclusive;fontSize=16;" parent="dmzS7PUN9_p-txz57ALC-4" vertex="1">
          <mxGeometry x="2679" y="142.5" width="50" height="50" as="geometry" />
        </mxCell>
        <mxCell id="Zq4oTGP_m3IXektJbRXE-3" style="edgeStyle=none;curved=1;rounded=0;orthogonalLoop=1;jettySize=auto;html=1;exitX=1;exitY=0.5;exitDx=0;exitDy=0;exitPerimeter=0;entryX=0;entryY=0.5;entryDx=0;entryDy=0;entryPerimeter=0;fontSize=12;startSize=8;endSize=8;" parent="dmzS7PUN9_p-txz57ALC-4" source="_HntZ_YFahZdOvb8UVIG-64" target="_HntZ_YFahZdOvb8UVIG-66" edge="1">
          <mxGeometry relative="1" as="geometry" />
        </mxCell>
        <mxCell id="Zq4oTGP_m3IXektJbRXE-6" style="edgeStyle=none;curved=1;rounded=0;orthogonalLoop=1;jettySize=auto;html=1;exitX=1;exitY=0.5;exitDx=0;exitDy=0;exitPerimeter=0;entryX=0;entryY=0.5;entryDx=0;entryDy=0;entryPerimeter=0;fontSize=12;startSize=8;endSize=8;" parent="dmzS7PUN9_p-txz57ALC-4" source="_HntZ_YFahZdOvb8UVIG-66" target="Zq4oTGP_m3IXektJbRXE-1" edge="1">
          <mxGeometry relative="1" as="geometry" />
        </mxCell>
        <mxCell id="Zq4oTGP_m3IXektJbRXE-7" value="Accept Request Appointment" style="points=[[0.25,0,0],[0.5,0,0],[0.75,0,0],[1,0.25,0],[1,0.5,0],[1,0.75,0],[0.75,1,0],[0.5,1,0],[0.25,1,0],[0,0.75,0],[0,0.5,0],[0,0.25,0]];shape=mxgraph.bpmn.task;whiteSpace=wrap;rectStyle=rounded;size=10;html=1;container=1;expand=0;collapsible=0;taskMarker=abstract;fontSize=16;labelBackgroundColor=none;" parent="dmzS7PUN9_p-txz57ALC-4" vertex="1">
          <mxGeometry x="2751" y="221" width="118" height="57" as="geometry" />
        </mxCell>
        <mxCell id="Zq4oTGP_m3IXektJbRXE-8" style="edgeStyle=orthogonalEdgeStyle;rounded=0;orthogonalLoop=1;jettySize=auto;html=1;exitX=0.5;exitY=1;exitDx=0;exitDy=0;exitPerimeter=0;entryX=0;entryY=0.5;entryDx=0;entryDy=0;entryPerimeter=0;fontSize=12;startSize=8;endSize=8;" parent="dmzS7PUN9_p-txz57ALC-4" source="Zq4oTGP_m3IXektJbRXE-1" target="Zq4oTGP_m3IXektJbRXE-7" edge="1">
          <mxGeometry relative="1" as="geometry" />
        </mxCell>
        <mxCell id="Zq4oTGP_m3IXektJbRXE-9" value="Decline Request Appointment" style="points=[[0.25,0,0],[0.5,0,0],[0.75,0,0],[1,0.25,0],[1,0.5,0],[1,0.75,0],[0.75,1,0],[0.5,1,0],[0.25,1,0],[0,0.75,0],[0,0.5,0],[0,0.25,0]];shape=mxgraph.bpmn.task;whiteSpace=wrap;rectStyle=rounded;size=10;html=1;container=1;expand=0;collapsible=0;taskMarker=abstract;fontSize=16;labelBackgroundColor=none;" parent="dmzS7PUN9_p-txz57ALC-4" vertex="1">
          <mxGeometry x="2751" y="35" width="118" height="57" as="geometry" />
        </mxCell>
        <mxCell id="Zq4oTGP_m3IXektJbRXE-10" style="edgeStyle=orthogonalEdgeStyle;rounded=0;orthogonalLoop=1;jettySize=auto;html=1;exitX=0.5;exitY=0;exitDx=0;exitDy=0;exitPerimeter=0;entryX=0;entryY=0.5;entryDx=0;entryDy=0;entryPerimeter=0;fontSize=12;startSize=8;endSize=8;" parent="dmzS7PUN9_p-txz57ALC-4" source="Zq4oTGP_m3IXektJbRXE-1" target="Zq4oTGP_m3IXektJbRXE-9" edge="1">
          <mxGeometry relative="1" as="geometry" />
        </mxCell>
        <mxCell id="Zq4oTGP_m3IXektJbRXE-12" value="" style="points=[[0.25,0.25,0],[0.5,0,0],[0.75,0.25,0],[1,0.5,0],[0.75,0.75,0],[0.5,1,0],[0.25,0.75,0],[0,0.5,0]];shape=mxgraph.bpmn.gateway2;html=1;verticalLabelPosition=bottom;labelBackgroundColor=#ffffff;verticalAlign=top;align=center;perimeter=rhombusPerimeter;outlineConnect=0;outline=none;symbol=none;gwType=exclusive;fontSize=16;" parent="dmzS7PUN9_p-txz57ALC-4" vertex="1">
          <mxGeometry x="2917" y="142.5" width="50" height="50" as="geometry" />
        </mxCell>
        <mxCell id="Zq4oTGP_m3IXektJbRXE-13" style="edgeStyle=orthogonalEdgeStyle;rounded=0;orthogonalLoop=1;jettySize=auto;html=1;exitX=1;exitY=0.5;exitDx=0;exitDy=0;exitPerimeter=0;entryX=0.5;entryY=0;entryDx=0;entryDy=0;entryPerimeter=0;fontSize=12;startSize=8;endSize=8;" parent="dmzS7PUN9_p-txz57ALC-4" source="Zq4oTGP_m3IXektJbRXE-9" target="Zq4oTGP_m3IXektJbRXE-12" edge="1">
          <mxGeometry relative="1" as="geometry" />
        </mxCell>
        <mxCell id="Zq4oTGP_m3IXektJbRXE-14" style="edgeStyle=orthogonalEdgeStyle;rounded=0;orthogonalLoop=1;jettySize=auto;html=1;exitX=1;exitY=0.5;exitDx=0;exitDy=0;exitPerimeter=0;entryX=0.5;entryY=1;entryDx=0;entryDy=0;entryPerimeter=0;fontSize=12;startSize=8;endSize=8;" parent="dmzS7PUN9_p-txz57ALC-4" source="Zq4oTGP_m3IXektJbRXE-7" target="Zq4oTGP_m3IXektJbRXE-12" edge="1">
          <mxGeometry relative="1" as="geometry" />
        </mxCell>
        <mxCell id="Zq4oTGP_m3IXektJbRXE-20" value="" style="points=[[0.145,0.145,0],[0.5,0,0],[0.855,0.145,0],[1,0.5,0],[0.855,0.855,0],[0.5,1,0],[0.145,0.855,0],[0,0.5,0]];shape=mxgraph.bpmn.event;html=1;verticalLabelPosition=bottom;labelBackgroundColor=#ffffff;verticalAlign=top;align=center;perimeter=ellipsePerimeter;outlineConnect=0;aspect=fixed;outline=throwing;symbol=message;fontSize=16;" parent="dmzS7PUN9_p-txz57ALC-4" vertex="1">
          <mxGeometry x="3091" y="142.5" width="50" height="50" as="geometry" />
        </mxCell>
        <mxCell id="Zq4oTGP_m3IXektJbRXE-19" style="edgeStyle=none;curved=1;rounded=0;orthogonalLoop=1;jettySize=auto;html=1;exitX=1;exitY=0.5;exitDx=0;exitDy=0;exitPerimeter=0;fontSize=12;startSize=8;endSize=8;" parent="dmzS7PUN9_p-txz57ALC-4" source="Zq4oTGP_m3IXektJbRXE-12" target="Zq4oTGP_m3IXektJbRXE-20" edge="1">
          <mxGeometry relative="1" as="geometry">
            <mxPoint x="3042" y="167" as="targetPoint" />
          </mxGeometry>
        </mxCell>
        <mxCell id="Zq4oTGP_m3IXektJbRXE-77" style="edgeStyle=none;curved=1;rounded=0;orthogonalLoop=1;jettySize=auto;html=1;exitX=1;exitY=0.5;exitDx=0;exitDy=0;exitPerimeter=0;fontSize=12;startSize=8;endSize=8;entryX=0;entryY=0.5;entryDx=0;entryDy=0;entryPerimeter=0;" parent="dmzS7PUN9_p-txz57ALC-4" source="Zq4oTGP_m3IXektJbRXE-76" target="Zq4oTGP_m3IXektJbRXE-78" edge="1">
          <mxGeometry relative="1" as="geometry">
            <mxPoint x="4132" y="167" as="targetPoint" />
          </mxGeometry>
        </mxCell>
        <mxCell id="Zq4oTGP_m3IXektJbRXE-76" value="" style="points=[[0.145,0.145,0],[0.5,0,0],[0.855,0.145,0],[1,0.5,0],[0.855,0.855,0],[0.5,1,0],[0.145,0.855,0],[0,0.5,0]];shape=mxgraph.bpmn.event;html=1;verticalLabelPosition=bottom;labelBackgroundColor=#ffffff;verticalAlign=top;align=center;perimeter=ellipsePerimeter;outlineConnect=0;aspect=fixed;outline=catching;symbol=message;fontSize=16;" parent="dmzS7PUN9_p-txz57ALC-4" vertex="1">
          <mxGeometry x="3906" y="142.5" width="50" height="50" as="geometry" />
        </mxCell>
        <mxCell id="Zq4oTGP_m3IXektJbRXE-78" value="Proceed to Online Consultation" style="points=[[0.25,0,0],[0.5,0,0],[0.75,0,0],[1,0.25,0],[1,0.5,0],[1,0.75,0],[0.75,1,0],[0.5,1,0],[0.25,1,0],[0,0.75,0],[0,0.5,0],[0,0.25,0]];shape=mxgraph.bpmn.task;whiteSpace=wrap;rectStyle=rounded;size=10;html=1;container=1;expand=0;collapsible=0;taskMarker=abstract;fontSize=16;labelBackgroundColor=none;" parent="dmzS7PUN9_p-txz57ALC-4" vertex="1">
          <mxGeometry x="4270" y="139" width="114" height="57" as="geometry" />
        </mxCell>
        <mxCell id="Zq4oTGP_m3IXektJbRXE-96" value="Provide Prescription Medication" style="points=[[0.25,0,0],[0.5,0,0],[0.75,0,0],[1,0.25,0],[1,0.5,0],[1,0.75,0],[0.75,1,0],[0.5,1,0],[0.25,1,0],[0,0.75,0],[0,0.5,0],[0,0.25,0]];shape=mxgraph.bpmn.task;whiteSpace=wrap;rectStyle=rounded;size=10;html=1;container=1;expand=0;collapsible=0;taskMarker=abstract;fontSize=16;labelBackgroundColor=none;" parent="dmzS7PUN9_p-txz57ALC-4" vertex="1">
          <mxGeometry x="4962" y="149.5" width="114" height="57" as="geometry" />
        </mxCell>
        <mxCell id="Zq4oTGP_m3IXektJbRXE-98" value="" style="points=[[0.25,0.25,0],[0.5,0,0],[0.75,0.25,0],[1,0.5,0],[0.75,0.75,0],[0.5,1,0],[0.25,0.75,0],[0,0.5,0]];shape=mxgraph.bpmn.gateway2;html=1;verticalLabelPosition=bottom;labelBackgroundColor=#ffffff;verticalAlign=top;align=center;perimeter=rhombusPerimeter;outlineConnect=0;outline=throwing;symbol=message;fontSize=16;" parent="dmzS7PUN9_p-txz57ALC-4" vertex="1">
          <mxGeometry x="5237" y="153" width="50" height="50" as="geometry" />
        </mxCell>
        <mxCell id="Zq4oTGP_m3IXektJbRXE-117" value="" style="shape=mxgraph.bpmn.data;labelPosition=center;verticalLabelPosition=bottom;align=center;verticalAlign=top;size=20;html=1;bpmnTransferType=input;fontSize=16;" parent="dmzS7PUN9_p-txz57ALC-4" vertex="1">
          <mxGeometry x="5070" y="239" width="40" height="60" as="geometry" />
        </mxCell>
        <mxCell id="Zq4oTGP_m3IXektJbRXE-125" style="edgeStyle=none;curved=1;rounded=0;orthogonalLoop=1;jettySize=auto;html=1;exitX=1;exitY=0.5;exitDx=0;exitDy=0;exitPerimeter=0;entryX=0;entryY=0.5;entryDx=0;entryDy=0;entryPerimeter=0;fontSize=12;startSize=8;endSize=8;endArrow=block;endFill=0;dashed=1;startArrow=oval;startFill=0;" parent="dmzS7PUN9_p-txz57ALC-4" source="Zq4oTGP_m3IXektJbRXE-96" target="Zq4oTGP_m3IXektJbRXE-98" edge="1">
          <mxGeometry relative="1" as="geometry" />
        </mxCell>
        <mxCell id="Zq4oTGP_m3IXektJbRXE-127" style="edgeStyle=orthogonalEdgeStyle;rounded=0;orthogonalLoop=1;jettySize=auto;html=1;exitX=0.5;exitY=1;exitDx=0;exitDy=0;exitPerimeter=0;entryX=0.5;entryY=1;entryDx=0;entryDy=0;entryPerimeter=0;fontSize=12;startSize=8;endSize=9;dashed=1;dashPattern=1 1;endArrow=open;endFill=0;targetPerimeterSpacing=15;sourcePerimeterSpacing=15;" parent="dmzS7PUN9_p-txz57ALC-4" source="Zq4oTGP_m3IXektJbRXE-96" target="Zq4oTGP_m3IXektJbRXE-117" edge="1">
          <mxGeometry relative="1" as="geometry" />
        </mxCell>
        <mxCell id="Zq4oTGP_m3IXektJbRXE-131" value="" style="points=[[0.25,0.25,0],[0.5,0,0],[0.75,0.25,0],[1,0.5,0],[0.75,0.75,0],[0.5,1,0],[0.25,0.75,0],[0,0.5,0]];shape=mxgraph.bpmn.gateway2;html=1;verticalLabelPosition=bottom;labelBackgroundColor=#ffffff;verticalAlign=top;align=center;perimeter=rhombusPerimeter;outlineConnect=0;outline=none;symbol=none;gwType=exclusive;fontSize=16;" parent="dmzS7PUN9_p-txz57ALC-4" vertex="1">
          <mxGeometry x="5367" y="153" width="50" height="50" as="geometry" />
        </mxCell>
        <mxCell id="Zq4oTGP_m3IXektJbRXE-132" value="Successful&amp;nbsp;&lt;br&gt;Transaction?" style="text;strokeColor=none;fillColor=none;html=1;align=center;verticalAlign=middle;whiteSpace=wrap;rounded=0;fontSize=16;" parent="dmzS7PUN9_p-txz57ALC-4" vertex="1">
          <mxGeometry x="5434" y="166" width="60" height="30" as="geometry" />
        </mxCell>
        <mxCell id="Zq4oTGP_m3IXektJbRXE-133" style="edgeStyle=none;curved=1;rounded=0;orthogonalLoop=1;jettySize=auto;html=1;exitX=1;exitY=0.5;exitDx=0;exitDy=0;exitPerimeter=0;entryX=0;entryY=0.5;entryDx=0;entryDy=0;entryPerimeter=0;fontSize=12;startSize=8;endSize=8;" parent="dmzS7PUN9_p-txz57ALC-4" source="Zq4oTGP_m3IXektJbRXE-98" target="Zq4oTGP_m3IXektJbRXE-131" edge="1">
          <mxGeometry relative="1" as="geometry" />
        </mxCell>
        <mxCell id="Zq4oTGP_m3IXektJbRXE-138" value="" style="points=[[0.145,0.145,0],[0.5,0,0],[0.855,0.145,0],[1,0.5,0],[0.855,0.855,0],[0.5,1,0],[0.145,0.855,0],[0,0.5,0]];shape=mxgraph.bpmn.event;html=1;verticalLabelPosition=bottom;labelBackgroundColor=#ffffff;verticalAlign=top;align=center;perimeter=ellipsePerimeter;outlineConnect=0;aspect=fixed;outline=end;symbol=terminate2;fontSize=16;" parent="dmzS7PUN9_p-txz57ALC-4" vertex="1">
          <mxGeometry x="5567" y="35" width="50" height="50" as="geometry" />
        </mxCell>
        <mxCell id="Zq4oTGP_m3IXektJbRXE-139" style="edgeStyle=orthogonalEdgeStyle;rounded=0;orthogonalLoop=1;jettySize=auto;html=1;exitX=0.5;exitY=0;exitDx=0;exitDy=0;exitPerimeter=0;entryX=0;entryY=0.5;entryDx=0;entryDy=0;entryPerimeter=0;fontSize=12;startSize=8;endSize=8;" parent="dmzS7PUN9_p-txz57ALC-4" source="Zq4oTGP_m3IXektJbRXE-131" target="Zq4oTGP_m3IXektJbRXE-138" edge="1">
          <mxGeometry relative="1" as="geometry" />
        </mxCell>
        <mxCell id="Zq4oTGP_m3IXektJbRXE-140" value="No" style="edgeLabel;html=1;align=center;verticalAlign=middle;resizable=0;points=[];fontSize=16;" parent="Zq4oTGP_m3IXektJbRXE-139" vertex="1" connectable="0">
          <mxGeometry x="-0.5224" y="-4" relative="1" as="geometry">
            <mxPoint as="offset" />
          </mxGeometry>
        </mxCell>
        <mxCell id="Zq4oTGP_m3IXektJbRXE-16" style="swimlane;startSize=20;horizontal=0;html=1;fontSize=16;labelBackgroundColor=none;dashed=1;dashPattern=8 8;" parent="dmzS7PUN9_p-txz57ALC-1" vertex="1">
          <mxGeometry x="20" y="1925" width="5953" height="526" as="geometry" />
        </mxCell>
        <mxCell id="Zq4oTGP_m3IXektJbRXE-141" style="edgeStyle=none;curved=1;rounded=0;orthogonalLoop=1;jettySize=auto;html=1;exitX=1;exitY=0.5;exitDx=0;exitDy=0;exitPerimeter=0;fontSize=12;startSize=8;endSize=8;" parent="Zq4oTGP_m3IXektJbRXE-16" source="Zq4oTGP_m3IXektJbRXE-135" edge="1">
          <mxGeometry relative="1" as="geometry">
            <mxPoint x="5654" y="91" as="targetPoint" />
          </mxGeometry>
        </mxCell>
        <mxCell id="Zq4oTGP_m3IXektJbRXE-135" value="Update Insurance" style="points=[[0.25,0,0],[0.5,0,0],[0.75,0,0],[1,0.25,0],[1,0.5,0],[1,0.75,0],[0.75,1,0],[0.5,1,0],[0.25,1,0],[0,0.75,0],[0,0.5,0],[0,0.25,0]];shape=mxgraph.bpmn.task;whiteSpace=wrap;rectStyle=rounded;size=10;html=1;container=1;expand=0;collapsible=0;taskMarker=abstract;fontSize=16;labelBackgroundColor=none;" parent="Zq4oTGP_m3IXektJbRXE-16" vertex="1">
          <mxGeometry x="5460" y="62" width="114" height="57" as="geometry" />
        </mxCell>
        <mxCell id="Zq4oTGP_m3IXektJbRXE-144" style="edgeStyle=none;curved=1;rounded=0;orthogonalLoop=1;jettySize=auto;html=1;exitX=1;exitY=0.5;exitDx=0;exitDy=0;exitPerimeter=0;fontSize=12;startSize=8;endSize=8;" parent="Zq4oTGP_m3IXektJbRXE-16" source="Zq4oTGP_m3IXektJbRXE-142" edge="1">
          <mxGeometry relative="1" as="geometry">
            <mxPoint x="5822" y="93" as="targetPoint" />
          </mxGeometry>
        </mxCell>
        <mxCell id="Zq4oTGP_m3IXektJbRXE-142" value="Send to Insurance Company" style="points=[[0.25,0,0],[0.5,0,0],[0.75,0,0],[1,0.25,0],[1,0.5,0],[1,0.75,0],[0.75,1,0],[0.5,1,0],[0.25,1,0],[0,0.75,0],[0,0.5,0],[0,0.25,0]];shape=mxgraph.bpmn.task;whiteSpace=wrap;rectStyle=rounded;size=10;html=1;container=1;expand=0;collapsible=0;taskMarker=abstract;fontSize=16;labelBackgroundColor=none;" parent="Zq4oTGP_m3IXektJbRXE-16" vertex="1">
          <mxGeometry x="5654" y="64" width="114" height="57" as="geometry" />
        </mxCell>
        <mxCell id="Zq4oTGP_m3IXektJbRXE-146" value="" style="points=[[0.145,0.145,0],[0.5,0,0],[0.855,0.145,0],[1,0.5,0],[0.855,0.855,0],[0.5,1,0],[0.145,0.855,0],[0,0.5,0]];shape=mxgraph.bpmn.event;html=1;verticalLabelPosition=bottom;labelBackgroundColor=#ffffff;verticalAlign=top;align=center;perimeter=ellipsePerimeter;outlineConnect=0;aspect=fixed;outline=end;symbol=terminate2;fontSize=16;" parent="Zq4oTGP_m3IXektJbRXE-16" vertex="1">
          <mxGeometry x="5821" y="65.5" width="50" height="50" as="geometry" />
        </mxCell>
        <mxCell id="Zq4oTGP_m3IXektJbRXE-147" style="swimlane;startSize=20;horizontal=0;html=1;fontSize=16;labelBackgroundColor=none;dashed=1;dashPattern=8 8;" parent="dmzS7PUN9_p-txz57ALC-1" vertex="1">
          <mxGeometry x="20" y="2451" width="5953" height="476" as="geometry" />
        </mxCell>
        <mxCell id="Zq4oTGP_m3IXektJbRXE-152" style="edgeStyle=none;curved=1;rounded=0;orthogonalLoop=1;jettySize=auto;html=1;exitX=1;exitY=0.5;exitDx=0;exitDy=0;exitPerimeter=0;fontSize=12;startSize=8;endSize=8;" parent="Zq4oTGP_m3IXektJbRXE-147" source="Zq4oTGP_m3IXektJbRXE-151" edge="1">
          <mxGeometry relative="1" as="geometry">
            <mxPoint x="1976" y="223" as="targetPoint" />
          </mxGeometry>
        </mxCell>
        <mxCell id="Zq4oTGP_m3IXektJbRXE-151" value="Received Laboratory&lt;br&gt;&amp;nbsp;Schedule Request" style="points=[[0.145,0.145,0],[0.5,0,0],[0.855,0.145,0],[1,0.5,0],[0.855,0.855,0],[0.5,1,0],[0.145,0.855,0],[0,0.5,0]];shape=mxgraph.bpmn.event;html=1;verticalLabelPosition=bottom;labelBackgroundColor=#ffffff;verticalAlign=top;align=center;perimeter=ellipsePerimeter;outlineConnect=0;aspect=fixed;outline=catching;symbol=message;fontSize=16;" parent="Zq4oTGP_m3IXektJbRXE-147" vertex="1">
          <mxGeometry x="1796" y="198" width="50" height="50" as="geometry" />
        </mxCell>
        <mxCell id="Zq4oTGP_m3IXektJbRXE-154" style="edgeStyle=none;curved=1;rounded=0;orthogonalLoop=1;jettySize=auto;html=1;exitX=1;exitY=0.5;exitDx=0;exitDy=0;exitPerimeter=0;fontSize=12;startSize=8;endSize=8;" parent="Zq4oTGP_m3IXektJbRXE-147" source="Zq4oTGP_m3IXektJbRXE-153" edge="1">
          <mxGeometry relative="1" as="geometry">
            <mxPoint x="2194" y="223" as="targetPoint" />
          </mxGeometry>
        </mxCell>
        <mxCell id="Zq4oTGP_m3IXektJbRXE-153" value="Respond Laboratory Request" style="points=[[0.25,0,0],[0.5,0,0],[0.75,0,0],[1,0.25,0],[1,0.5,0],[1,0.75,0],[0.75,1,0],[0.5,1,0],[0.25,1,0],[0,0.75,0],[0,0.5,0],[0,0.25,0]];shape=mxgraph.bpmn.task;whiteSpace=wrap;rectStyle=rounded;size=10;html=1;container=1;expand=0;collapsible=0;taskMarker=abstract;fontSize=16;labelBackgroundColor=none;" parent="Zq4oTGP_m3IXektJbRXE-147" vertex="1">
          <mxGeometry x="1976" y="194.5" width="114" height="57" as="geometry" />
        </mxCell>
        <mxCell id="Zq4oTGP_m3IXektJbRXE-163" style="edgeStyle=orthogonalEdgeStyle;rounded=0;orthogonalLoop=1;jettySize=auto;html=1;exitX=1;exitY=0.5;exitDx=0;exitDy=0;exitPerimeter=0;fontSize=12;startSize=8;endSize=8;entryX=0.52;entryY=0.95;entryDx=0;entryDy=0;entryPerimeter=0;" parent="Zq4oTGP_m3IXektJbRXE-147" source="Zq4oTGP_m3IXektJbRXE-155" target="Zq4oTGP_m3IXektJbRXE-162" edge="1">
          <mxGeometry relative="1" as="geometry">
            <mxPoint x="2478" y="253" as="targetPoint" />
          </mxGeometry>
        </mxCell>
        <mxCell id="Zq4oTGP_m3IXektJbRXE-155" value="Accept Schedule Laboratory Request" style="points=[[0.25,0,0],[0.5,0,0],[0.75,0,0],[1,0.25,0],[1,0.5,0],[1,0.75,0],[0.75,1,0],[0.5,1,0],[0.25,1,0],[0,0.75,0],[0,0.5,0],[0,0.25,0]];shape=mxgraph.bpmn.task;whiteSpace=wrap;rectStyle=rounded;size=10;html=1;container=1;expand=0;collapsible=0;taskMarker=abstract;fontSize=16;labelBackgroundColor=none;" parent="Zq4oTGP_m3IXektJbRXE-147" vertex="1">
          <mxGeometry x="2268" y="328" width="138" height="65" as="geometry" />
        </mxCell>
        <mxCell id="Zq4oTGP_m3IXektJbRXE-156" value="" style="points=[[0.25,0.25,0],[0.5,0,0],[0.75,0.25,0],[1,0.5,0],[0.75,0.75,0],[0.5,1,0],[0.25,0.75,0],[0,0.5,0]];shape=mxgraph.bpmn.gateway2;html=1;verticalLabelPosition=bottom;labelBackgroundColor=#ffffff;verticalAlign=top;align=center;perimeter=rhombusPerimeter;outlineConnect=0;outline=none;symbol=none;gwType=exclusive;fontSize=16;" parent="Zq4oTGP_m3IXektJbRXE-147" vertex="1">
          <mxGeometry x="2194" y="198" width="50" height="50" as="geometry" />
        </mxCell>
        <mxCell id="Zq4oTGP_m3IXektJbRXE-157" style="edgeStyle=orthogonalEdgeStyle;rounded=0;orthogonalLoop=1;jettySize=auto;html=1;exitX=0.5;exitY=1;exitDx=0;exitDy=0;exitPerimeter=0;entryX=0;entryY=0.5;entryDx=0;entryDy=0;entryPerimeter=0;fontSize=12;startSize=8;endSize=8;" parent="Zq4oTGP_m3IXektJbRXE-147" source="Zq4oTGP_m3IXektJbRXE-156" target="Zq4oTGP_m3IXektJbRXE-155" edge="1">
          <mxGeometry relative="1" as="geometry" />
        </mxCell>
        <mxCell id="Zq4oTGP_m3IXektJbRXE-159" value="Decline Schedule Laboratory Request" style="points=[[0.25,0,0],[0.5,0,0],[0.75,0,0],[1,0.25,0],[1,0.5,0],[1,0.75,0],[0.75,1,0],[0.5,1,0],[0.25,1,0],[0,0.75,0],[0,0.5,0],[0,0.25,0]];shape=mxgraph.bpmn.task;whiteSpace=wrap;rectStyle=rounded;size=10;html=1;container=1;expand=0;collapsible=0;taskMarker=abstract;fontSize=16;labelBackgroundColor=none;" parent="Zq4oTGP_m3IXektJbRXE-147" vertex="1">
          <mxGeometry x="2268" y="56" width="138" height="65" as="geometry" />
        </mxCell>
        <mxCell id="Zq4oTGP_m3IXektJbRXE-160" style="edgeStyle=orthogonalEdgeStyle;rounded=0;orthogonalLoop=1;jettySize=auto;html=1;exitX=0.5;exitY=0;exitDx=0;exitDy=0;exitPerimeter=0;entryX=0;entryY=0.5;entryDx=0;entryDy=0;entryPerimeter=0;fontSize=12;startSize=8;endSize=8;" parent="Zq4oTGP_m3IXektJbRXE-147" source="Zq4oTGP_m3IXektJbRXE-156" target="Zq4oTGP_m3IXektJbRXE-159" edge="1">
          <mxGeometry relative="1" as="geometry" />
        </mxCell>
        <mxCell id="Zq4oTGP_m3IXektJbRXE-165" style="edgeStyle=none;curved=1;rounded=0;orthogonalLoop=1;jettySize=auto;html=1;exitX=1;exitY=0.5;exitDx=0;exitDy=0;exitPerimeter=0;fontSize=12;startSize=8;endSize=8;" parent="Zq4oTGP_m3IXektJbRXE-147" source="Zq4oTGP_m3IXektJbRXE-162" edge="1">
          <mxGeometry relative="1" as="geometry">
            <mxPoint x="2616" y="227" as="targetPoint" />
          </mxGeometry>
        </mxCell>
        <mxCell id="Zq4oTGP_m3IXektJbRXE-162" value="" style="points=[[0.25,0.25,0],[0.5,0,0],[0.75,0.25,0],[1,0.5,0],[0.75,0.75,0],[0.5,1,0],[0.25,0.75,0],[0,0.5,0]];shape=mxgraph.bpmn.gateway2;html=1;verticalLabelPosition=bottom;labelBackgroundColor=#ffffff;verticalAlign=top;align=center;perimeter=rhombusPerimeter;outlineConnect=0;outline=none;symbol=none;gwType=exclusive;fontSize=16;" parent="Zq4oTGP_m3IXektJbRXE-147" vertex="1">
          <mxGeometry x="2458" y="201.5" width="50" height="50" as="geometry" />
        </mxCell>
        <mxCell id="Zq4oTGP_m3IXektJbRXE-164" style="edgeStyle=orthogonalEdgeStyle;rounded=0;orthogonalLoop=1;jettySize=auto;html=1;exitX=1;exitY=0.5;exitDx=0;exitDy=0;exitPerimeter=0;entryX=0.5;entryY=0;entryDx=0;entryDy=0;entryPerimeter=0;fontSize=12;startSize=8;endSize=8;" parent="Zq4oTGP_m3IXektJbRXE-147" source="Zq4oTGP_m3IXektJbRXE-159" target="Zq4oTGP_m3IXektJbRXE-162" edge="1">
          <mxGeometry relative="1" as="geometry" />
        </mxCell>
        <mxCell id="Zq4oTGP_m3IXektJbRXE-143" style="swimlane;startSize=20;horizontal=0;html=1;fontSize=16;labelBackgroundColor=none;dashed=1;dashPattern=8 8;" parent="dmzS7PUN9_p-txz57ALC-1" vertex="1">
          <mxGeometry x="20" y="2927" width="5953" height="284" as="geometry" />
        </mxCell>
        <mxCell id="_HntZ_YFahZdOvb8UVIG-63" style="edgeStyle=none;curved=1;rounded=0;orthogonalLoop=1;jettySize=auto;html=1;exitX=0.5;exitY=1;exitDx=0;exitDy=0;exitPerimeter=0;fontSize=12;startSize=8;endSize=8;entryX=0.5;entryY=0;entryDx=0;entryDy=0;entryPerimeter=0;" parent="dmzS7PUN9_p-txz57ALC-1" source="_HntZ_YFahZdOvb8UVIG-62" target="_HntZ_YFahZdOvb8UVIG-64" edge="1">
          <mxGeometry relative="1" as="geometry">
            <mxPoint x="2388" y="1428" as="targetPoint" />
          </mxGeometry>
        </mxCell>
        <mxCell id="Zq4oTGP_m3IXektJbRXE-21" style="edgeStyle=none;curved=1;rounded=0;orthogonalLoop=1;jettySize=auto;html=1;exitX=0.5;exitY=0;exitDx=0;exitDy=0;exitPerimeter=0;fontSize=12;startSize=8;endSize=8;entryX=0.5;entryY=1;entryDx=0;entryDy=0;entryPerimeter=0;" parent="dmzS7PUN9_p-txz57ALC-1" source="Zq4oTGP_m3IXektJbRXE-20" target="Zq4oTGP_m3IXektJbRXE-22" edge="1">
          <mxGeometry relative="1" as="geometry">
            <mxPoint x="3136" y="1086" as="targetPoint" />
          </mxGeometry>
        </mxCell>
        <mxCell id="Zq4oTGP_m3IXektJbRXE-27" style="edgeStyle=none;curved=1;rounded=0;orthogonalLoop=1;jettySize=auto;html=1;exitX=0.5;exitY=0;exitDx=0;exitDy=0;exitPerimeter=0;fontSize=12;startSize=8;endSize=8;entryX=0.5;entryY=1;entryDx=0;entryDy=0;entryPerimeter=0;" parent="dmzS7PUN9_p-txz57ALC-1" source="Zq4oTGP_m3IXektJbRXE-26" target="Zq4oTGP_m3IXektJbRXE-28" edge="1">
          <mxGeometry relative="1" as="geometry">
            <mxPoint x="3486" y="620" as="targetPoint" />
          </mxGeometry>
        </mxCell>
        <mxCell id="Zq4oTGP_m3IXektJbRXE-75" style="edgeStyle=none;curved=1;rounded=0;orthogonalLoop=1;jettySize=auto;html=1;exitX=0.5;exitY=1;exitDx=0;exitDy=0;exitPerimeter=0;fontSize=12;startSize=8;endSize=8;" parent="dmzS7PUN9_p-txz57ALC-1" source="Zq4oTGP_m3IXektJbRXE-51" target="Zq4oTGP_m3IXektJbRXE-76" edge="1">
          <mxGeometry relative="1" as="geometry">
            <mxPoint x="3952" y="1498" as="targetPoint" />
          </mxGeometry>
        </mxCell>
        <mxCell id="Zq4oTGP_m3IXektJbRXE-82" style="edgeStyle=none;curved=1;rounded=0;orthogonalLoop=1;jettySize=auto;html=1;exitX=0.5;exitY=0;exitDx=0;exitDy=0;exitPerimeter=0;entryX=0.5;entryY=1;entryDx=0;entryDy=0;entryPerimeter=0;fontSize=12;startSize=8;endSize=8;" parent="dmzS7PUN9_p-txz57ALC-1" source="Zq4oTGP_m3IXektJbRXE-78" target="Zq4oTGP_m3IXektJbRXE-42" edge="1">
          <mxGeometry relative="1" as="geometry" />
        </mxCell>
        <mxCell id="Zq4oTGP_m3IXektJbRXE-99" style="edgeStyle=none;curved=1;rounded=0;orthogonalLoop=1;jettySize=auto;html=1;exitX=0.5;exitY=0;exitDx=0;exitDy=0;exitPerimeter=0;fontSize=12;startSize=8;endSize=8;dashed=1;endArrow=blockThin;endFill=0;startArrow=oval;startFill=0;" parent="dmzS7PUN9_p-txz57ALC-1" source="Zq4oTGP_m3IXektJbRXE-98" target="Zq4oTGP_m3IXektJbRXE-100" edge="1">
          <mxGeometry relative="1" as="geometry">
            <mxPoint x="5270" y="580" as="targetPoint" />
          </mxGeometry>
        </mxCell>
        <mxCell id="Zq4oTGP_m3IXektJbRXE-118" style="edgeStyle=none;curved=1;rounded=0;orthogonalLoop=1;jettySize=auto;html=1;exitX=0.5;exitY=1;exitDx=0;exitDy=0;exitPerimeter=0;entryX=0.5;entryY=0;entryDx=0;entryDy=0;entryPerimeter=0;fontSize=12;startSize=8;endSize=8;dashed=1;dashPattern=1 1;endArrow=open;endFill=0;" parent="dmzS7PUN9_p-txz57ALC-1" source="Zq4oTGP_m3IXektJbRXE-114" target="Zq4oTGP_m3IXektJbRXE-96" edge="1">
          <mxGeometry relative="1" as="geometry" />
        </mxCell>
        <mxCell id="Zq4oTGP_m3IXektJbRXE-134" style="edgeStyle=orthogonalEdgeStyle;rounded=0;orthogonalLoop=1;jettySize=auto;html=1;exitX=0.5;exitY=1;exitDx=0;exitDy=0;exitPerimeter=0;fontSize=12;startSize=8;endSize=8;entryX=0;entryY=0.5;entryDx=0;entryDy=0;entryPerimeter=0;" parent="dmzS7PUN9_p-txz57ALC-1" source="Zq4oTGP_m3IXektJbRXE-131" target="Zq4oTGP_m3IXektJbRXE-135" edge="1">
          <mxGeometry relative="1" as="geometry">
            <mxPoint x="5412" y="1628" as="targetPoint" />
          </mxGeometry>
        </mxCell>
        <mxCell id="Zq4oTGP_m3IXektJbRXE-136" value="Yes" style="edgeLabel;html=1;align=center;verticalAlign=middle;resizable=0;points=[];fontSize=16;" parent="Zq4oTGP_m3IXektJbRXE-134" vertex="1" connectable="0">
          <mxGeometry x="-0.251" y="4" relative="1" as="geometry">
            <mxPoint as="offset" />
          </mxGeometry>
        </mxCell>
        <mxCell id="Zq4oTGP_m3IXektJbRXE-150" style="edgeStyle=none;curved=1;rounded=0;orthogonalLoop=1;jettySize=auto;html=1;exitX=0.5;exitY=1;exitDx=0;exitDy=0;exitPerimeter=0;fontSize=12;startSize=8;endSize=8;" parent="dmzS7PUN9_p-txz57ALC-1" source="Zq4oTGP_m3IXektJbRXE-149" target="Zq4oTGP_m3IXektJbRXE-151" edge="1">
          <mxGeometry relative="1" as="geometry">
            <mxPoint x="1854" y="2558" as="targetPoint" />
          </mxGeometry>
        </mxCell>
        <mxCell id="_HntZ_YFahZdOvb8UVIG-26" style="edgeStyle=none;curved=1;rounded=0;orthogonalLoop=1;jettySize=auto;html=1;exitX=0.5;exitY=1;exitDx=0;exitDy=0;exitPerimeter=0;fontSize=12;startSize=8;endSize=8;entryX=0.5;entryY=0;entryDx=0;entryDy=0;entryPerimeter=0;" parent="dmzS7PUN9_p-txz57ALC-1" source="_HntZ_YFahZdOvb8UVIG-18" target="_HntZ_YFahZdOvb8UVIG-29" edge="1">
          <mxGeometry relative="1" as="geometry">
            <mxPoint x="2231" y="834.5" as="targetPoint" />
            <mxPoint x="2231" y="309" as="sourcePoint" />
          </mxGeometry>
        </mxCell>
        <mxCell id="dmzS7PUN9_p-txz57ALC-22" value="" style="shape=stencil(fZbdcgIhDIWfZm8zQAg/17Z9j85U606tdqz9e/tmZ0c0uJ47xP0I5JwEBl59bp8/1kNwn6fj4W39M76ctgM/DCGM++36OJ50NPDjwKvN4bh+PR6+9i/z74/n6ctp9H74nlb4nbmSKZeJCu5vngmZ6jzzNAO7cX8FVKEsBuBKrgKg9oAE8gkCbLeUhEoEQKSUDZDLeWYRKIl8MEDRmHwfyBrBG6Amyu4+kDxxMoB3jhwgYu7TVAsVkFcWCs4CTBEoF4RctKeOxHIf8IXYpikHikAIf+MNUW94AGSSaoAoFIE3AlOyeWU+p2E5S9yfQZcQILVuQOwZdJNoS9Ls3wA5u2XZTIHECqeJ9kDpSaauRiNVcAY1QhdBzeLBli5WazpkSsBLV25uRaqWRyFawTQzRRIQYirJzq5atkBqLfouwqUxLBepthWb10vrWZY6UOAeyKCCtDV625mm9gmUC4Wc3VLJMMIE1BsA2FW9JraVlQB7n3c9oMKhCLEvIM1zBPZ25/umNQ1tVEC2G+fFCC8g398O2hNQuQlVu752DBfA+q0ptnqO5JFmeuIuo9DY7KjY71UxdJV4EntifPWorW++R/dC4t7V3DlIB5cHx2bc7eb3yvX//QNFp+bHDT/+Aw==);lineShape=1;fontSize=16;labelBackgroundColor=none;" parent="1" vertex="1">
          <mxGeometry x="487.86796084247567" y="-75.1246875414808" width="4.672539772115442" height="4.665236216357528" as="geometry" />
        </mxCell>
      </root>
    </mxGraphModel>
  </diagram>
</mxfile>
